<svg width="721" height="721" viewBox="0 0 721 721" fill="none" xmlns="http://www.w3.org/2000/svg">
<path d="M720.669 360.335C720.669 445.233 691.334 523.248 642.197 584.832C576.185 667.628 474.451 720.669 360.335 720.669C246.218 720.669 144.484 667.614 78.4722 584.832C29.3356 523.248 0 445.233 0 360.335C0 161.32 161.32 0 360.335 0C559.349 0 720.669 161.32 720.669 360.335Z" fill="white"/>
<path d="M706.524 405.488C721.544 272.563 660.457 131.266 543.885 60.0166C493.677 29.3356 435.92 10.4752 377.014 7.82375C371.685 7.58865 366.356 7.47107 361.014 7.47107C194.117 7.47107 29.414 144.706 8.69882 313.092C-2.88654 407.316 27.8728 503.042 86.6224 576.786C150.884 657.388 249.915 709.032 361.014 709.032C472.113 709.032 571.131 657.388 635.405 576.786C646.037 563.451 655.716 549.331 664.362 534.494C687.664 494.474 701.443 450.458 706.524 405.488Z" fill="url(#paint0_linear_7_448)"/>
<path d="M435.058 584.962C434.915 584.962 434.771 584.962 434.627 584.949C385.713 580.979 337.935 556.345 306.836 519.042C280.844 487.865 269.102 451.306 272.903 413.298C278.297 380.867 294.493 357.174 318.578 346.228L319.1 346.019C333.285 341.291 349.572 341.265 365.337 341.265C381.52 339.659 395.653 332.018 406.219 319.165C420.796 301.454 427.901 275.057 425.249 248.556C414.095 170.437 340.782 127.099 273.085 118.897C270.16 118.544 268.07 115.88 268.423 112.954C268.775 110.028 271.414 107.938 274.365 108.291C346.111 116.99 423.865 163.331 435.855 247.276C438.807 276.755 430.8 306.091 414.474 325.957C402 341.121 385.282 350.107 366.095 351.936L365.585 351.962C350.003 351.962 335.296 351.962 322.731 356.077C294.95 368.864 286.212 398.278 283.469 414.709C280.008 449.452 290.901 483.294 315.012 512.211C344.322 547.359 389.357 570.582 435.463 574.317C438.402 574.553 440.596 577.139 440.361 580.064C440.139 582.86 437.801 584.976 435.045 584.976L435.058 584.962Z" fill="white"/>
<path d="M461.912 543.571C421.853 543.571 383.819 531.45 351.244 507.757C321.294 483.803 301.938 446.761 301.755 413.259C301.611 388.495 311.668 367.113 330.829 351.427L331.534 350.852L332.383 350.539C353.281 342.937 378.686 330.816 389.775 304.21C409.04 248.543 367.531 195.736 318.643 174.486C280.648 158.485 234.92 156.2 189.937 168.033C187.09 168.778 184.164 167.08 183.419 164.232C182.675 161.385 184.373 158.459 187.22 157.715C220.657 148.925 271.322 142.982 322.849 164.677C376.191 187.873 421.239 245.97 399.753 308.024C386.993 338.679 358.01 352.511 336.903 360.269C320.772 373.775 312.308 392.06 312.426 413.207C312.596 443.626 330.372 477.403 357.709 499.281C402.705 531.986 459.156 541.246 516.495 525.194C519.303 524.397 522.281 526.043 523.078 528.903C523.875 531.751 522.216 534.69 519.369 535.486C499.999 540.907 480.72 543.584 461.886 543.584L461.912 543.571Z" fill="white"/>
<path d="M454.807 500.299C419.111 500.299 383.884 489.132 355.241 462.539C344.91 452.208 339.855 441.85 334.5 430.892C333.585 429.024 332.658 427.117 331.678 425.171C319.296 397.938 329.327 373.566 340.639 350.931L341.279 349.663L342.454 348.88C360.335 336.955 371.437 316.331 371.437 295.067C371.437 267.155 352.289 238.695 320.211 218.959C256.981 182.832 182.284 208.994 133.526 245.565C131.162 247.328 127.818 246.858 126.055 244.494C124.291 242.13 124.762 238.786 127.126 237.023C178.6 198.414 257.791 170.985 325.67 209.777C361.079 231.563 382.134 263.42 382.134 295.08C382.134 319.779 370 342.793 349.585 356.965C339.28 377.719 331.169 398.238 341.318 420.586C342.232 422.389 343.172 424.322 344.1 426.216C349.259 436.795 353.713 445.925 362.647 454.859C423.604 511.467 517.632 492.345 575.076 445.533C577.374 443.666 580.718 444.018 582.586 446.291C584.454 448.577 584.114 451.946 581.828 453.801C547.516 481.752 500.783 500.299 454.807 500.299Z" fill="white"/>
<path d="M449.439 460.959C438.598 460.959 427.431 459.744 415.937 457.119C375.577 448.159 337.321 414.043 342.349 366.212L342.48 365.481C344.034 359.263 346.098 353.334 348.096 347.587C352.041 336.25 355.763 325.539 355.763 313.001C355.763 299.169 348.24 288.249 340.273 276.69C339.071 274.94 337.869 273.203 336.707 271.466C320.942 253.898 299.822 247.002 272.994 242.117C209.49 236.318 146.574 274.718 112.654 340.103C111.295 342.728 108.069 343.747 105.457 342.388C102.831 341.03 101.813 337.804 103.171 335.192C139.142 265.836 206.29 225.163 274.209 231.511L274.666 231.577C299.979 236.174 325.997 243.371 344.922 264.661L345.38 265.248C346.581 267.051 347.822 268.853 349.063 270.656C357.2 282.476 366.434 295.864 366.434 313.014C366.434 327.355 362.229 339.436 358.167 351.113C356.207 356.769 354.34 362.111 352.916 367.714C348.775 409.132 382.604 438.794 418.262 446.709C499.398 465.282 564.835 407.786 596.195 352.929C597.658 350.369 600.924 349.468 603.484 350.943C606.044 352.406 606.932 355.672 605.469 358.232C576.695 408.583 520.518 460.972 449.413 460.972L449.439 460.959Z" fill="white"/>
<path d="M123.625 439.329C123.481 439.329 123.338 439.329 123.194 439.316C120.255 439.081 118.061 436.508 118.296 433.569C123.403 369.752 154.541 315.978 203.743 286.042C241.986 264.177 281.079 260.115 313.967 274.509C331.913 282.202 343.786 297.549 352.119 310.049C359.329 321.582 359.251 333.298 359.159 344.635C359.107 352.655 359.042 360.243 361.641 367.153C372.678 400.237 408.583 415.218 437.305 415.218C467.986 415.218 497.583 401.752 527.793 374.049C555.758 346.085 571.875 309.683 579.895 256.197C580.339 253.271 583.108 251.26 585.968 251.704C588.881 252.148 590.892 254.865 590.461 257.777C582.076 313.667 565.031 351.91 535.186 381.755C503.186 411.104 470.311 425.889 437.305 425.889C404.299 425.889 364.214 408.622 351.571 370.705C348.344 362.124 348.423 353.19 348.475 344.544C348.553 334.29 348.619 324.599 343.146 315.822C335.714 304.681 325.122 290.888 309.722 284.292C279.982 271.283 244.285 275.175 209.163 295.224C163.057 323.293 133.761 374.049 128.928 434.405C128.706 437.2 126.368 439.316 123.612 439.316L123.625 439.329Z" fill="white"/>
<path d="M177.385 522.229C175.243 522.229 173.219 520.936 172.409 518.82C143.06 443.012 167.433 356.494 230.375 313.079C254.943 295.877 286.108 291.384 313.693 301.089C338.144 309.683 356.364 328.713 363.783 353.347C379.953 378.999 412.436 390.428 444.867 381.768C477.181 370.979 502.886 348.135 518.886 315.796C539.078 274.966 541.939 221.323 526.331 175.805C525.377 173.023 526.866 169.979 529.648 169.026C532.417 168.072 535.474 169.561 536.427 172.343C552.923 220.448 549.867 277.239 528.447 320.537C511.153 355.489 483.307 380.201 447.924 391.995C410.32 402.039 372.834 388.468 354.301 358.362L353.726 357.056C347.326 335.1 331.835 318.8 310.127 311.159C285.781 302.591 258.235 306.587 236.436 321.843C177.49 362.49 154.763 443.692 182.336 514.954C183.407 517.697 182.035 520.792 179.279 521.863C178.639 522.112 177.999 522.216 177.359 522.216L177.385 522.229Z" fill="white"/>
<path d="M258.052 578.236C256.563 578.236 255.074 577.609 254.016 576.394C214.362 530.797 181.591 451.424 219.691 377.745C235.861 348.109 260.808 327.551 288.21 321.229C323.123 314.215 350.683 333.481 375.264 355.502C397.259 365.193 417.504 360.439 430.683 354.692C455.473 343.877 477.194 319.805 486.01 293.369C504.153 236.905 489.798 174.224 446.605 121.431C444.737 119.145 445.076 115.788 447.349 113.92C449.635 112.053 452.992 112.392 454.872 114.665C500.404 170.319 515.451 236.657 496.159 296.687C486.272 326.362 462.827 352.315 434.954 364.475C412.998 374.049 390.585 374.193 370.118 364.893L369.373 364.553L368.759 364.005C346.098 343.616 320.929 325.592 290.47 331.665C266.202 337.268 243.776 355.907 229.134 382.761C193.542 451.581 224.628 526.317 262.088 569.393C264.021 571.614 263.786 574.997 261.565 576.93C260.56 577.805 259.306 578.236 258.065 578.236H258.052Z" fill="white"/>
<path d="M354.392 598.403C353.556 598.403 352.72 598.207 351.936 597.802C288.014 564.561 245.709 506.229 241.529 445.559C240.053 413.246 253.128 378.96 274.809 358.075C291.058 342.428 310.937 335.074 332.214 336.785C341.736 336.824 351.087 339.058 360.126 341.226C373.239 344.374 385.608 347.339 397.677 343.721C424.335 336.106 445.22 311.028 452.247 278.257C468.143 198.74 411.509 132.663 352.145 104.973C349.468 103.733 348.318 100.546 349.559 97.881C350.8 95.2165 353.987 94.0672 356.651 95.2949C419.685 124.709 479.741 195.188 462.696 280.426C454.833 317.128 431.062 345.288 400.668 353.974C385.909 358.401 371.528 354.94 357.618 351.61C348.71 349.467 340.312 347.456 331.979 347.456H331.535C313.223 345.902 296.217 352.25 282.189 365.755C262.623 384.602 250.829 415.675 252.161 444.932C256.08 501.801 296.191 556.776 356.834 588.306C359.447 589.665 360.465 592.891 359.107 595.516C358.154 597.344 356.286 598.389 354.366 598.389L354.392 598.403Z" fill="white"/>
<path d="M694.443 466.549L27.2461 466.954C27.2461 466.954 27.2461 466.993 27.2461 467.006H27.5073C31.9351 480.512 37.0812 493.625 43.0633 506.308C47.4911 515.934 52.3629 525.351 57.6789 534.481C66.3124 549.318 76.0039 563.424 86.6227 576.773C150.884 657.374 249.915 709.019 361.014 709.019C472.113 709.019 571.131 657.374 635.406 576.773C646.037 563.438 655.716 549.318 664.349 534.481C668.829 526.788 673.035 518.872 676.914 510.788C683.785 496.668 689.649 482.053 694.573 467.006C694.573 467.006 694.43 466.562 694.43 466.549H694.443Z" fill="#102C3A"/>
<path d="M693.907 466.967H27.3894C27.3894 466.967 27.3894 467.006 27.3894 467.019H27.52C31.9478 480.525 37.0939 493.638 43.076 506.321C122.227 576.512 236.043 620.515 362.581 620.515C489.119 620.515 598.115 578.393 676.94 510.801C683.445 497.413 689.048 483.581 693.815 469.344C693.711 468.547 693.75 467.751 693.92 466.954L693.907 466.967Z" fill="#16394F"/>
<path d="M362.516 30.1847C362.516 32.5227 360.622 34.4166 358.284 34.4166C355.946 34.4166 354.052 32.5227 354.052 30.1847C354.052 27.8468 355.946 25.9529 358.284 25.9529C360.622 25.9529 362.516 27.8468 362.516 30.1847Z" fill="white"/>
<path d="M334.356 31.0465C334.565 33.3714 332.841 35.4351 330.503 35.631C328.178 35.84 326.114 34.1158 325.918 31.7778C325.709 29.4529 327.433 27.3892 329.771 27.1933C332.096 26.9843 334.16 28.7085 334.356 31.0465Z" fill="white"/>
<path d="M306.379 34.3513C306.783 36.6501 305.242 38.8574 302.943 39.2623C300.645 39.6672 298.437 38.126 298.032 35.8272C297.627 33.5284 299.169 31.321 301.467 30.9161C303.766 30.5112 305.974 32.0525 306.379 34.3513Z" fill="white"/>
<path d="M278.793 40.0848C279.394 42.3444 278.062 44.6695 275.802 45.2703C273.542 45.8711 271.218 44.5388 270.617 42.2792C270.016 40.0196 271.348 37.6947 273.608 37.0939C275.867 36.4931 278.192 37.8252 278.793 40.0848Z" fill="white"/>
<path d="M251.822 48.2093C252.618 50.4036 251.482 52.8329 249.288 53.6427C247.093 54.4394 244.664 53.3031 243.854 51.1088C243.057 48.9145 244.194 46.4851 246.388 45.6753C248.582 44.8786 251.012 46.015 251.822 48.2093Z" fill="white"/>
<path d="M225.66 58.6453C226.653 60.7612 225.725 63.282 223.609 64.2746C221.493 65.2673 218.973 64.34 217.98 62.2241C216.987 60.1082 217.915 57.5873 220.031 56.5946C222.146 55.602 224.667 56.5294 225.66 58.6453Z" fill="white"/>
<path d="M200.491 71.3275C201.666 73.352 200.961 75.9382 198.936 77.1137C196.912 78.2892 194.326 77.5838 193.15 75.5593C191.975 73.5348 192.68 70.9488 194.705 69.7732C196.729 68.5977 199.315 69.303 200.491 71.3275Z" fill="white"/>
<path d="M176.536 86.1522C177.882 88.0722 177.411 90.7106 175.491 92.0559C173.571 93.4012 170.933 92.9311 169.588 91.0111C168.242 89.0911 168.713 86.4527 170.633 85.1074C172.553 83.7621 175.191 84.2322 176.536 86.1522Z" fill="white"/>
<path d="M153.966 103.001C155.468 104.791 155.233 107.469 153.444 108.971C151.655 110.473 148.977 110.237 147.475 108.448C145.973 106.659 146.208 103.981 147.997 102.479C149.787 100.977 152.464 101.212 153.966 103.001Z" fill="white"/>
<path d="M132.951 121.757C134.61 123.416 134.61 126.094 132.951 127.753C131.292 129.411 128.615 129.411 126.956 127.753C125.297 126.094 125.297 123.416 126.956 121.757C128.615 120.099 131.292 120.099 132.951 121.757Z" fill="white"/>
<path d="M113.646 142.276C115.436 143.778 115.671 146.456 114.169 148.245C112.667 150.035 109.989 150.27 108.2 148.768C106.41 147.266 106.175 144.588 107.677 142.799C109.179 141.009 111.857 140.774 113.646 142.276Z" fill="white"/>
<path d="M96.2096 164.402C98.1296 165.748 98.5867 168.386 97.2545 170.306C95.9092 172.226 93.2708 172.683 91.3508 171.351C89.4308 170.006 88.9736 167.367 90.3059 165.447C91.6512 163.527 94.2896 163.07 96.2096 164.402Z" fill="white"/>
<path d="M80.758 187.965C82.7825 189.141 83.4748 191.727 82.3123 193.751C81.1368 195.776 78.5507 196.468 76.5262 195.306C74.5017 194.13 73.8094 191.544 74.9719 189.519C76.1474 187.495 78.7335 186.803 80.758 187.965Z" fill="white"/>
<path d="M67.4225 212.781C69.5384 213.774 70.4527 216.295 69.4731 218.411C68.4804 220.527 65.9596 221.441 63.8437 220.461C61.7278 219.469 60.8135 216.948 61.7931 214.832C62.7857 212.716 65.3066 211.802 67.4225 212.781Z" fill="white"/>
<path d="M56.3072 238.669C58.5015 239.466 59.6378 241.895 58.8411 244.102C58.0443 246.297 55.6149 247.433 53.4076 246.636C51.2133 245.839 50.0769 243.41 50.8737 241.203C51.6704 239.009 54.0998 237.872 56.3072 238.669Z" fill="white"/>
<path d="M47.4779 265.418C49.7375 266.019 51.0828 268.344 50.469 270.604C49.8681 272.863 47.5432 274.209 45.2836 273.595C43.024 272.994 41.6787 270.669 42.2926 268.409C42.8934 266.15 45.2183 264.804 47.4779 265.418Z" fill="white"/>
<path d="M36.1142 296.609C33.9983 295.616 33.084 293.095 34.0636 290.979C35.0562 288.863 37.5771 287.949 39.693 288.929C41.8089 289.921 42.7232 292.442 41.7436 294.558C40.751 296.674 38.2301 297.601 36.1142 296.609Z" fill="white"/>
<path d="M31.8825 319.884C29.7666 318.891 28.8523 316.37 29.8319 314.254C30.8246 312.138 33.3454 311.224 35.4613 312.204C37.5772 313.196 38.4915 315.717 37.5119 317.833C36.5193 319.949 33.9984 320.876 31.8825 319.884Z" fill="white"/>
<path d="M25.4565 344.347C23.3406 343.355 22.4263 340.834 23.4059 338.718C24.3985 336.602 26.9194 335.688 29.0353 336.667C31.1512 337.66 32.0655 340.181 31.0859 342.297C30.0932 344.413 27.5724 345.34 25.4565 344.347Z" fill="white"/>
<path d="M681.185 329.288C678.847 329.288 676.953 327.394 676.953 325.056C676.953 322.718 678.847 320.824 681.185 320.824C683.523 320.824 685.417 322.718 685.417 325.056C685.417 327.394 683.523 329.288 681.185 329.288Z" fill="white"/>
<path d="M685.417 357.317C683.079 357.317 681.185 355.423 681.185 353.085C681.185 350.748 683.079 348.854 685.417 348.854C687.755 348.854 689.649 350.748 689.649 353.085C689.649 355.423 687.755 357.317 685.417 357.317Z" fill="white"/>
<path d="M685.417 390.885C683.079 390.885 681.185 388.991 681.185 386.653C681.185 384.315 683.079 382.421 685.417 382.421C687.755 382.421 689.649 384.315 689.649 386.653C689.649 388.991 687.755 390.885 685.417 390.885Z" fill="white"/>
<path d="M677.005 301.18C674.707 301.585 672.499 300.044 672.094 297.745C671.689 295.446 673.231 293.252 675.529 292.834C677.828 292.429 680.036 293.97 680.441 296.269C680.845 298.568 679.304 300.775 677.005 301.18Z" fill="white"/>
<path d="M671.272 273.595C669.012 274.195 666.687 272.863 666.086 270.604C665.485 268.344 666.818 266.019 669.077 265.418C671.337 264.817 673.662 266.15 674.263 268.409C674.863 270.669 673.531 272.994 671.272 273.595Z" fill="white"/>
<path d="M663.16 246.623C660.966 247.42 658.537 246.284 657.727 244.089C656.93 241.895 658.067 239.466 660.261 238.656C662.455 237.859 664.885 238.995 665.694 241.19C666.491 243.384 665.355 245.813 663.16 246.623Z" fill="white"/>
<path d="M652.711 220.462C650.595 221.454 648.075 220.527 647.082 218.411C646.089 216.295 647.017 213.774 649.133 212.782C651.248 211.789 653.769 212.716 654.762 214.832C655.755 216.948 654.827 219.469 652.711 220.462Z" fill="white"/>
<path d="M640.042 195.306C638.018 196.481 635.432 195.776 634.256 193.751C633.08 191.727 633.786 189.141 635.81 187.965C637.835 186.79 640.421 187.495 641.596 189.519C642.772 191.544 642.067 194.13 640.042 195.306Z" fill="white"/>
<path d="M625.217 171.338C623.297 172.683 620.659 172.213 619.314 170.293C617.968 168.373 618.439 165.735 620.359 164.389C622.279 163.044 624.917 163.514 626.262 165.434C627.608 167.354 627.137 169.993 625.217 171.338Z" fill="white"/>
<path d="M608.356 148.768C606.566 150.27 603.889 150.035 602.387 148.245C600.885 146.456 601.12 143.778 602.909 142.276C604.698 140.774 607.376 141.009 608.878 142.799C610.38 144.588 610.145 147.266 608.356 148.768Z" fill="white"/>
<path d="M589.599 127.753C587.941 129.411 585.263 129.411 583.604 127.753C581.945 126.094 581.945 123.416 583.604 121.757C585.263 120.099 587.941 120.099 589.599 121.757C591.258 123.416 591.258 126.094 589.599 127.753Z" fill="white"/>
<path d="M569.08 108.448C567.578 110.237 564.901 110.473 563.111 108.971C561.322 107.469 561.087 104.791 562.589 103.001C564.091 101.212 566.769 100.977 568.558 102.479C570.347 103.981 570.582 106.659 569.08 108.448Z" fill="white"/>
<path d="M546.954 91.0111C545.609 92.9312 542.971 93.3882 541.051 92.056C539.131 90.7106 538.674 88.0722 540.006 86.1522C541.351 84.2322 543.99 83.7752 545.91 85.1074C547.83 86.4527 548.287 89.0911 546.954 91.0111Z" fill="white"/>
<path d="M523.392 75.5592C522.216 77.5837 519.63 78.2761 517.606 77.1136C515.581 75.9381 514.889 73.3519 516.051 71.3274C517.227 69.3029 519.813 68.6107 521.838 69.7732C523.862 70.9487 524.554 73.5347 523.392 75.5592Z" fill="white"/>
<path d="M498.575 62.2242C497.583 64.3401 495.062 65.2674 492.946 64.2747C490.83 63.2821 489.916 60.7613 490.895 58.6454C491.888 56.5295 494.409 55.6151 496.525 56.5947C498.64 57.5874 499.555 60.1083 498.575 62.2242Z" fill="white"/>
<path d="M472.701 51.1088C471.904 53.3031 469.475 54.4394 467.267 53.6427C465.073 52.8459 463.937 50.4166 464.734 48.2093C465.53 46.015 467.96 44.8786 470.167 45.6753C472.361 46.472 473.498 48.9015 472.701 51.1088Z" fill="white"/>
<path d="M445.938 42.2792C445.338 44.5388 443.013 45.8841 440.753 45.2703C438.494 44.6694 437.148 42.3444 437.762 40.0848C438.363 37.8252 440.688 36.48 442.947 37.0939C445.207 37.6947 446.552 40.0196 445.938 42.2792Z" fill="white"/>
<path d="M418.523 35.827C418.118 38.1258 415.923 39.667 413.612 39.2621C411.313 38.8572 409.772 36.6629 410.176 34.3511C410.581 32.0392 412.776 30.511 415.087 30.9159C417.386 31.3208 418.927 33.5152 418.523 35.827Z" fill="white"/>
<path d="M390.637 31.778C390.428 34.1029 388.377 35.8271 386.052 35.6312C383.727 35.4222 382.003 33.3716 382.199 31.0467C382.408 28.7218 384.459 26.9976 386.784 27.1935C389.109 27.4025 390.833 29.4531 390.637 31.778Z" fill="white"/>
<path d="M143.099 499.463H108.631C107.377 499.463 106.345 500.482 106.345 501.749C106.345 503.016 107.364 504.035 108.631 504.035H146.77C145.738 502.938 144.745 501.749 143.779 500.443C143.544 500.13 143.321 499.803 143.112 499.476L143.099 499.463Z" fill="url(#paint1_linear_7_448)"/>
<path d="M186.789 499.463C185.77 500.77 184.503 502.389 182.936 504.022H353.334C343.89 502.428 333.964 500.887 323.841 499.463H186.789Z" fill="url(#paint2_linear_7_448)"/>
<path d="M586.151 533.749H453.657C452.403 533.749 451.372 534.768 451.372 536.035C451.372 537.302 452.39 538.321 453.657 538.321H586.151C587.405 538.321 588.437 537.302 588.437 536.035C588.437 534.768 587.418 533.749 586.151 533.749Z" fill="url(#paint3_linear_7_448)"/>
<path d="M317.402 600.806H449.896C451.15 600.806 452.182 599.787 452.182 598.52C452.182 597.253 451.163 596.234 449.896 596.234H317.402C316.148 596.234 315.116 597.253 315.116 598.52C315.116 599.787 316.135 600.806 317.402 600.806Z" fill="url(#paint4_linear_7_448)"/>
<path d="M385.19 636.359H299.378C298.124 636.359 297.092 637.377 297.092 638.644C297.092 639.911 298.111 640.93 299.378 640.93H385.19C386.444 640.93 387.476 639.911 387.476 638.644C387.476 637.377 386.457 636.359 385.19 636.359Z" fill="url(#paint5_linear_7_448)"/>
<path d="M211.358 574.644C210.104 574.644 209.072 575.663 209.072 576.93C209.072 578.197 210.091 579.215 211.358 579.215H309.644C310.898 579.215 311.929 578.197 311.929 576.93C311.929 575.663 310.911 574.644 309.644 574.644H211.358Z" fill="url(#paint6_linear_7_448)"/>
<path d="M301.65 598.52C301.65 597.266 300.632 596.234 299.365 596.234H201.078C199.825 596.234 198.793 597.253 198.793 598.52C198.793 599.787 199.812 600.806 201.078 600.806H299.365C300.618 600.806 301.65 599.787 301.65 598.52Z" fill="url(#paint7_linear_7_448)"/>
<path d="M443.339 636.359H406.128C404.874 636.359 403.842 637.377 403.842 638.644C403.842 639.911 404.861 640.93 406.128 640.93H443.339C444.593 640.93 445.625 639.911 445.625 638.644C445.625 637.377 444.606 636.359 443.339 636.359Z" fill="url(#paint8_linear_7_448)"/>
<path d="M191.661 574.644H173.062C171.808 574.644 170.776 575.663 170.776 576.93C170.776 578.197 171.795 579.215 173.062 579.215H191.661C192.915 579.215 193.947 578.197 193.947 576.93C193.947 575.663 192.928 574.644 191.661 574.644Z" fill="url(#paint9_linear_7_448)"/>
<path d="M156.879 518.807C156.879 517.553 155.86 516.521 154.593 516.521H120.764C119.511 516.521 118.479 517.54 118.479 518.807C118.479 520.074 119.498 521.093 120.764 521.093H154.593C155.847 521.093 156.879 520.074 156.879 518.807Z" fill="url(#paint10_linear_7_448)"/>
<path d="M571.496 552.531H509.207C507.953 552.531 506.921 553.55 506.921 554.817C506.921 556.084 507.94 557.103 509.207 557.103H571.496C572.75 557.103 573.782 556.084 573.782 554.817C573.782 553.55 572.763 552.531 571.496 552.531Z" fill="url(#paint11_linear_7_448)"/>
<path d="M528.942 596.234H466.653C465.399 596.234 464.367 597.253 464.367 598.52C464.367 599.787 465.386 600.806 466.653 600.806H528.942C530.196 600.806 531.228 599.787 531.228 598.52C531.228 597.253 530.209 596.234 528.942 596.234Z" fill="url(#paint12_linear_7_448)"/>
<path d="M267.547 521.08C268.801 521.08 269.833 520.061 269.833 518.794C269.833 517.527 268.814 516.508 267.547 516.508H181.918C180.664 516.508 179.632 517.527 179.632 518.794C179.632 520.061 180.651 521.08 181.918 521.08H267.547Z" fill="url(#paint13_linear_7_448)"/>
<path d="M398.238 554.804C398.238 556.058 399.257 557.09 400.524 557.09H486.154C487.408 557.09 488.439 556.071 488.439 554.804C488.439 553.537 487.421 552.518 486.154 552.518H400.524C399.27 552.518 398.238 553.537 398.238 554.804Z" fill="url(#paint14_linear_7_448)"/>
<path d="M436.743 533.749H351.113C349.859 533.749 348.827 534.768 348.827 536.035C348.827 537.302 349.846 538.321 351.113 538.321H436.743C437.997 538.321 439.029 537.302 439.029 536.035C439.029 534.768 438.01 533.749 436.743 533.749Z" fill="url(#paint15_linear_7_448)"/>
<path d="M390.689 554.804C390.689 553.55 389.67 552.518 388.403 552.518H142.734C141.48 552.518 140.448 553.537 140.448 554.804C140.448 556.071 141.467 557.09 142.734 557.09H388.403C389.657 557.09 390.689 556.071 390.689 554.804Z" fill="url(#paint16_linear_7_448)"/>
<path d="M557.129 574.644H325.631C324.377 574.644 323.345 575.663 323.345 576.93C323.345 578.197 324.364 579.215 325.631 579.215H557.129C558.383 579.215 559.415 578.197 559.415 576.93C559.415 575.663 558.396 574.644 557.129 574.644Z" fill="url(#paint17_linear_7_448)"/>
<path d="M335.714 536.035C335.714 534.781 334.695 533.749 333.428 533.749H117.081C115.827 533.749 114.795 534.768 114.795 536.035C114.795 537.302 115.814 538.321 117.081 538.321H333.441C334.695 538.321 335.727 537.302 335.727 536.035H335.714Z" fill="url(#paint18_linear_7_448)"/>
<path d="M486.154 618.608H254.656C253.402 618.608 252.37 619.627 252.37 620.894C252.37 622.161 253.389 623.18 254.656 623.18H486.154C487.408 623.18 488.44 622.161 488.44 620.894C488.44 619.627 487.421 618.608 486.154 618.608Z" fill="url(#paint19_linear_7_448)"/>
<path d="M607.937 499.464H125.715V504.022H607.937C609.191 504.022 610.223 503.003 610.223 501.736C610.223 500.469 609.204 499.451 607.937 499.451V499.464Z" fill="url(#paint20_linear_7_448)"/>
<path d="M597.214 516.522H285.546C284.292 516.522 283.26 517.54 283.26 518.807C283.26 520.074 284.279 521.093 285.546 521.093H597.214C598.468 521.093 599.5 520.074 599.5 518.807C599.5 517.54 598.481 516.522 597.214 516.522Z" fill="url(#paint21_linear_7_448)"/>
<path d="M188.945 405.148C188.945 398.134 186.672 393.576 186.672 383.545C186.672 382.852 186.62 382.225 186.541 381.625C180.376 375.434 174.59 368.812 169.261 361.68C163.031 359.799 156.788 357.944 150.518 356.168C125.793 357.344 101.081 358.454 76.3563 359.238C76.2126 359.407 31.4516 361.04 6.28247 361.21C10.3707 409.85 11.089 414.213 17.5935 439.538C21.4597 454.598 24.5291 467.307 31.0205 480.629C36.3495 491.574 41.9398 505.615 47.5431 515.673C62.9293 519.095 78.0673 524.528 83.2787 521.08C90.9196 516.064 104.503 520.44 112.902 525.965C121.235 531.477 155.899 526.422 159.308 528.721C160.641 529.596 162.535 528.512 164.611 526.461C167.89 523.209 171.691 517.475 174.46 513.139C178.94 506.125 174.46 501.566 174.46 496.551C174.46 491.535 163.096 475.457 158.538 467.934C153.993 460.371 147.109 465.922 152.477 453.357C157.78 440.818 172.944 430.252 185.131 422.232C197.265 414.173 188.918 412.162 188.918 405.148H188.945Z" fill="#16394F"/>
<path d="M227.959 414.787C227.044 418.209 226.143 422.676 226.143 430.252C226.143 445.834 222.355 460.371 222.355 460.371C233.34 453.096 235.247 444.332 253.493 432.25C254.016 431.897 254.525 431.558 254.995 431.218C245.761 425.981 236.71 420.534 227.959 414.774V414.787Z" fill="#16394F"/>
<path d="M255.009 431.231C254.525 431.571 254.029 431.91 253.507 432.263C235.247 444.332 233.353 453.109 222.369 460.384C222.369 460.384 226.156 445.847 226.156 430.265C226.156 422.689 227.058 418.209 227.972 414.8C213.043 404.978 199.028 394.163 186.541 381.638C186.62 382.225 186.672 382.865 186.672 383.558C186.672 393.589 188.945 398.134 188.945 405.161C188.945 412.188 197.278 414.186 185.157 422.245C172.971 430.265 157.807 440.831 152.504 453.37C147.136 465.948 154.019 460.384 158.564 467.947C163.109 475.47 174.486 491.548 174.486 496.564C174.486 501.579 178.966 506.125 174.486 513.152C171.704 517.501 167.916 523.222 164.638 526.474C179.854 528.982 222.943 529.531 222.943 529.531L352.498 509.181C352.498 509.181 374.99 513.988 383.675 509.586C346.751 476.868 298.986 456.178 255.022 431.244L255.009 431.231Z" fill="#102C3A"/>
<path d="M491.457 430.918C487.082 431.636 482.732 432.446 478.396 433.321C481.883 434.079 486.912 435.62 489.524 434.523C492.267 433.373 490.477 432.89 491.457 430.905V430.918Z" fill="#16394F"/>
<path d="M558.474 429.272C556.306 429.272 554.491 428.711 553.028 427.796C552.766 427.94 552.61 428.031 552.61 428.031H547.111C546.04 428.031 545.034 427.979 544.055 427.914C543.493 428.071 542.879 428.175 542.213 428.188C538.007 428.306 533.867 428.005 529.739 427.509C529.465 427.535 529.191 427.561 528.904 427.561C520.335 427.587 511.859 428.201 503.447 429.207C501.357 432.342 494.578 434.484 494.578 437.671C494.578 441.445 489.04 443.757 489.04 447.937C489.04 452.116 485.54 450.458 476.554 454.232C467.515 457.994 456.531 457.158 456.531 461.155C456.531 465.151 449.491 466.797 445.494 468.495C441.497 470.167 437.997 475.183 436.495 475.81C436.155 475.953 436.077 476.032 436.247 476.071C436.743 476.227 440.492 475.796 447.989 474.974C457.524 473.929 461.024 472.675 470.52 471.212C480.054 469.749 491.052 468.704 491.052 469.958C491.052 471.212 494.592 471.212 500.09 473.511C505.589 475.81 509.586 478.761 509.586 475.81C509.586 475.352 509.547 475.039 509.455 474.778C509.129 473.328 508.332 474.151 512.577 469.527C517.619 464.067 517.37 462.5 529.609 457.367C541.899 452.247 534.102 456.74 542.148 448.146C550.141 439.551 542.148 444.802 552.14 438.506C558.696 434.405 562.027 431.558 564.247 429.076C562.34 429.207 560.42 429.298 558.5 429.285L558.474 429.272Z" fill="#16394F"/>
<path d="M682.113 418.235C677.019 417.635 671.951 416.446 666.609 416.067C661.58 415.715 656.46 416.59 651.353 417.896C651.288 418.288 651.249 418.667 651.249 419.019C651.249 421.749 645.214 421.318 645.214 425.524C645.214 429.729 643.712 431.61 643.712 434.536C643.712 437.462 638.214 438.298 646.207 441.667C654.24 445.011 664.232 449.426 667.732 454.65C671.272 459.901 666.739 457.576 663.735 460.737C660.744 463.872 653.247 470.585 653.247 472.675C653.247 474.765 650.295 476.672 653.247 479.597C655.076 481.413 657.583 483.803 659.739 485.161C661.11 486.01 662.364 486.468 663.239 486.102C665.486 485.148 684.764 481.896 690.263 479.597C690.759 479.388 689.074 481.243 689.688 480.982C690.903 478.082 692.235 474.086 692.862 472.218C695.918 463.036 696.663 460.75 698.322 453.135C699.445 447.963 700.085 442.765 701.208 437.867C694.39 431.127 689.126 424.831 682.113 418.262V418.235Z" fill="#16394F"/>
<path d="M595.177 426.085C591.82 426.085 588.489 426.333 585.172 426.686V427.404C585.172 430.121 588.176 430.539 592.172 434.536C596.169 438.506 589.181 440.831 601.172 445.847C613.201 450.889 614.455 454.546 621.704 457.576C621.704 457.576 619.209 451.515 619.209 445.011C619.209 438.506 616.715 437.462 616.715 434.536C616.715 431.61 616.963 429.39 618.713 428.658C620.463 427.927 626.001 429.599 627.751 428.867C628.927 428.371 627.36 426.647 626.223 424.531C615.944 426.177 605.73 426.085 595.203 426.085H595.177Z" fill="#16394F"/>
<path d="M646.22 441.654C638.227 438.298 643.725 437.449 643.725 434.523C643.725 431.597 645.227 429.69 645.227 425.511C645.227 421.331 651.262 421.749 651.262 419.006C651.262 418.653 651.301 418.274 651.366 417.883C644.927 419.541 638.527 421.879 632.44 423.316C630.364 423.812 628.287 424.178 626.21 424.518C627.36 426.621 628.927 428.358 627.738 428.854C625.988 429.586 620.45 427.914 618.7 428.645C616.95 429.377 616.702 431.584 616.702 434.523C616.702 437.462 619.196 438.493 619.196 444.998C619.196 451.502 621.691 457.563 621.691 457.563C614.442 454.533 613.201 450.875 601.159 445.834C589.168 440.818 596.156 438.493 592.159 434.523C588.163 430.526 585.159 430.108 585.159 427.391V426.673C578.158 427.404 571.222 428.593 564.208 429.063C561.988 431.545 558.657 434.392 552.1 438.493C542.109 444.789 550.102 439.538 542.109 448.133C534.076 456.727 541.86 452.234 529.57 457.354C517.331 462.5 517.58 464.067 512.538 469.514C508.293 474.138 509.077 473.315 509.416 474.765C511.375 476.11 513.282 477.285 514.876 477.912C520.205 480.041 535.904 477.912 535.904 477.912L621.312 486.402C621.312 486.402 649.707 486.18 659.752 485.135C657.583 483.777 655.089 481.387 653.26 479.571C650.308 476.645 653.26 474.738 653.26 472.649C653.26 470.559 660.757 463.845 663.748 460.711C666.752 457.563 671.285 459.875 667.745 454.624C664.245 449.4 654.253 444.985 646.22 441.641V441.654Z" fill="#102C3A"/>
<path d="M491.457 430.918C490.464 432.903 492.267 433.386 489.524 434.536C486.911 435.633 481.883 434.092 478.395 433.334C477.703 433.478 477.011 433.622 476.319 433.765C464.08 444.893 448.746 452.835 435.319 462.67C429.115 467.215 422.767 471.617 416.524 476.123C422.715 476.75 429.089 477.351 431.479 477.351C433.478 477.351 435.058 476.776 436.221 476.058C436.051 476.018 436.142 475.94 436.469 475.796C437.971 475.17 441.471 470.154 445.468 468.482C449.465 466.797 456.505 465.125 456.505 461.142C456.505 457.158 467.502 457.994 476.528 454.219C485.527 450.458 489.014 452.129 489.014 447.924C489.014 443.718 494.552 441.445 494.552 437.657C494.552 434.47 501.344 432.328 503.434 429.194C499.424 429.677 495.44 430.252 491.457 430.905V430.918Z" fill="#102C3A"/>
<defs>
<linearGradient id="paint0_linear_7_448" x1="347.169" y1="530.562" x2="376.687" y2="43.4549" gradientUnits="userSpaceOnUse">
<stop stop-color="#72B599"/>
<stop offset="1" stop-color="#16394F"/>
</linearGradient>
<linearGradient id="paint1_linear_7_448" x1="126.015" y1="501.814" x2="726.599" y2="656.813" gradientUnits="userSpaceOnUse">
<stop offset="0.06" stop-color="#72B599"/>
<stop offset="1" stop-color="#002F5F"/>
</linearGradient>
<linearGradient id="paint2_linear_7_448" x1="134.348" y1="469.501" x2="734.945" y2="624.486" gradientUnits="userSpaceOnUse">
<stop offset="0.06" stop-color="#72B599"/>
<stop offset="1" stop-color="#002F5F"/>
</linearGradient>
<linearGradient id="paint3_linear_7_448" x1="142.329" y1="438.598" x2="742.913" y2="593.583" gradientUnits="userSpaceOnUse">
<stop offset="0.06" stop-color="#72B599"/>
<stop offset="1" stop-color="#002F5F"/>
</linearGradient>
<linearGradient id="paint4_linear_7_448" x1="118.701" y1="530.144" x2="719.285" y2="685.143" gradientUnits="userSpaceOnUse">
<stop offset="0.06" stop-color="#72B599"/>
<stop offset="1" stop-color="#002F5F"/>
</linearGradient>
<linearGradient id="paint5_linear_7_448" x1="106.41" y1="577.766" x2="706.994" y2="732.764" gradientUnits="userSpaceOnUse">
<stop offset="0.06" stop-color="#72B599"/>
<stop offset="1" stop-color="#002F5F"/>
</linearGradient>
<linearGradient id="paint6_linear_7_448" x1="116.232" y1="539.692" x2="716.829" y2="694.677" gradientUnits="userSpaceOnUse">
<stop offset="0.06" stop-color="#72B599"/>
<stop offset="1" stop-color="#002F5F"/>
</linearGradient>
<linearGradient id="paint7_linear_7_448" x1="110.368" y1="562.432" x2="710.952" y2="717.417" gradientUnits="userSpaceOnUse">
<stop offset="0.06" stop-color="#72B599"/>
<stop offset="1" stop-color="#002F5F"/>
</linearGradient>
<linearGradient id="paint8_linear_7_448" x1="111.557" y1="557.821" x2="712.153" y2="712.806" gradientUnits="userSpaceOnUse">
<stop offset="0.06" stop-color="#72B599"/>
<stop offset="1" stop-color="#002F5F"/>
</linearGradient>
<linearGradient id="paint9_linear_7_448" x1="111.361" y1="558.605" x2="711.945" y2="713.59" gradientUnits="userSpaceOnUse">
<stop offset="0.06" stop-color="#72B599"/>
<stop offset="1" stop-color="#002F5F"/>
</linearGradient>
<linearGradient id="paint10_linear_7_448" x1="122.632" y1="514.915" x2="723.216" y2="669.913" gradientUnits="userSpaceOnUse">
<stop offset="0.06" stop-color="#72B599"/>
<stop offset="1" stop-color="#002F5F"/>
</linearGradient>
<linearGradient id="paint11_linear_7_448" x1="139.063" y1="451.254" x2="739.647" y2="606.239" gradientUnits="userSpaceOnUse">
<stop offset="0.06" stop-color="#72B599"/>
<stop offset="1" stop-color="#002F5F"/>
</linearGradient>
<linearGradient id="paint12_linear_7_448" x1="125.832" y1="502.533" x2="726.416" y2="657.518" gradientUnits="userSpaceOnUse">
<stop offset="0.06" stop-color="#72B599"/>
<stop offset="1" stop-color="#002F5F"/>
</linearGradient>
<linearGradient id="paint13_linear_7_448" x1="128.066" y1="493.86" x2="728.65" y2="648.845" gradientUnits="userSpaceOnUse">
<stop offset="0.06" stop-color="#72B599"/>
<stop offset="1" stop-color="#002F5F"/>
</linearGradient>
<linearGradient id="paint14_linear_7_448" x1="133.003" y1="474.725" x2="733.587" y2="629.711" gradientUnits="userSpaceOnUse">
<stop offset="0.06" stop-color="#72B599"/>
<stop offset="1" stop-color="#002F5F"/>
</linearGradient>
<linearGradient id="paint15_linear_7_448" x1="134.466" y1="469.07" x2="735.05" y2="624.068" gradientUnits="userSpaceOnUse">
<stop offset="0.06" stop-color="#72B599"/>
<stop offset="1" stop-color="#002F5F"/>
</linearGradient>
<linearGradient id="paint16_linear_7_448" x1="106.24" y1="513.687" x2="742.874" y2="677.985" gradientUnits="userSpaceOnUse">
<stop offset="0.06" stop-color="#72B599"/>
<stop offset="1" stop-color="#002F5F"/>
</linearGradient>
<linearGradient id="paint17_linear_7_448" x1="127.53" y1="495.924" x2="728.114" y2="650.922" gradientUnits="userSpaceOnUse">
<stop offset="0.06" stop-color="#72B599"/>
<stop offset="1" stop-color="#002F5F"/>
</linearGradient>
<linearGradient id="paint18_linear_7_448" x1="104.751" y1="504.936" x2="761.538" y2="674.432" gradientUnits="userSpaceOnUse">
<stop offset="0.06" stop-color="#72B599"/>
<stop offset="1" stop-color="#002F5F"/>
</linearGradient>
<linearGradient id="paint19_linear_7_448" x1="112.458" y1="554.334" x2="713.042" y2="709.319" gradientUnits="userSpaceOnUse">
<stop offset="0.06" stop-color="#72B599"/>
<stop offset="1" stop-color="#002F5F"/>
</linearGradient>
<linearGradient id="paint20_linear_7_448" x1="140.226" y1="443.222" x2="595.098" y2="560.617" gradientUnits="userSpaceOnUse">
<stop offset="0.06" stop-color="#72B599"/>
<stop offset="1" stop-color="#002F5F"/>
</linearGradient>
<linearGradient id="paint21_linear_7_448" x1="293.069" y1="480.525" x2="589.691" y2="557.077" gradientUnits="userSpaceOnUse">
<stop offset="0.06" stop-color="#72B599"/>
<stop offset="1" stop-color="#002F5F"/>
</linearGradient>
</defs>
</svg>
