<svg xmlns="http://www.w3.org/2000/svg" aria-hidden="true" style="position:absolute;width:0;height:0;overflow:hidden">
  <defs>
    <symbol id="bakota-relax" viewBox="0 0 37 32">
      <path fill="#fff" d="M24.013 8.823a8.754 8.754 0 0 1-1.915 5.479c-1.611 2.021-4.094 3.315-6.879 3.315s-5.268-1.295-6.879-3.315a8.754 8.754 0 0 1-1.915-5.479c0-4.857 3.937-8.794 8.794-8.794s8.794 3.937 8.794 8.794z" style="fill:var(--color1, #fff)"/>
      <path d="M23.668 9.925c.367-3.244-1.124-6.692-3.969-8.431C18.474.745 17.064.285 15.626.22a8.458 8.458 0 0 0-.39-.009c-4.073 0-8.093 3.349-8.598 7.459-.283 2.3.468 4.636 1.902 6.435 1.569 1.967 3.985 3.228 6.697 3.228s5.128-1.26 6.697-3.228a8.03 8.03 0 0 0 1.736-4.18v-.001z" style="fill:var(--color2, #000)"/>
      <path fill="#fff" d="M17.043 14.305h-.011a4.622 4.622 0 0 1-3.119-1.609c-.634-.761-.921-1.653-.828-2.581.131-.791.527-1.369 1.115-1.637l.013-.005c.346-.116.744-.116 1.129-.116.395-.039.74-.226.998-.54.356-.432.529-1.077.465-1.723-.272-1.907-2.062-2.964-3.714-3.164-.071-.009-.122-.073-.114-.145s.073-.123.145-.114c1.751.212 3.649 1.343 3.941 3.392.072.719-.123 1.436-.522 1.92a1.71 1.71 0 0 1-1.181.634h-.012c-.38.001-.739.001-1.046.101-.678.312-.891 1.03-.958 1.431-.085.848.181 1.674.77 2.379a4.359 4.359 0 0 0 2.939 1.516.131.131 0 0 1 .12.14.131.131 0 0 1-.13.12h-.001z" style="fill:var(--color1, #fff)"/>
      <path fill="#fff" d="M17.698 13.295a4.547 4.547 0 0 1-2.701-.874c-.731-.584-1.203-1.489-1.208-2.306a1.877 1.877 0 0 1 .71-1.509l.017-.014.021-.008c.51-.185 1.13-.482 1.401-1.131.47-1.359-.543-2.647-1.736-3.166-.927-.39-2.043-.446-3.141-.157a.13.13 0 0 1-.066-.252c.816-.215 2.053-.359 3.31.17 1.302.566 2.401 1.984 1.877 3.498-.312.748-1.019 1.086-1.534 1.275-.394.33-.6.776-.597 1.292.004.742.438 1.567 1.105 2.101 1.098.798 2.476 1.024 3.875.632.069-.019.141.021.161.091s-.021.141-.091.161a5.21 5.21 0 0 1-1.403.198v-.001z" style="fill:var(--color1, #fff)"/>
      <path fill="#fff" d="M17.525 12.239c-.871 0-1.731-.272-2.43-.921-.253-.252-.376-.505-.506-.772a8.897 8.897 0 0 0-.069-.139c-.302-.665-.058-1.259.219-1.812l.015-.031.029-.019a1.6 1.6 0 0 0 .708-1.313c0-.681-.467-1.376-1.25-1.858-1.543-.882-3.366-.243-4.556.65-.058.043-.139.032-.182-.026s-.032-.139.026-.182c1.256-.942 3.189-1.612 4.846-.665.864.532 1.378 1.309 1.378 2.082 0 .603-.296 1.165-.794 1.51-.251.507-.45 1.007-.202 1.553l.068.137c.126.258.235.481.453.699 1.488 1.382 3.783.915 5.185-.228a.13.13 0 0 1 .164.202c-.837.682-1.978 1.135-3.1 1.135v-.001z" style="fill:var(--color1, #fff)"/>
      <path fill="#fff" d="M17.394 11.278a3.67 3.67 0 0 1-.818-.094c-.985-.219-1.919-1.051-1.796-2.219l.003-.018c.038-.152.088-.297.137-.437.096-.277.187-.538.187-.844 0-.338-.184-.604-.378-.886a4.827 4.827 0 0 1-.087-.128c-.385-.429-.9-.597-1.555-.716-1.55-.142-3.086.796-3.913 2.392a.13.13 0 0 1-.232-.12c.878-1.693 2.517-2.685 4.175-2.531l.011.002c.617.113 1.253.288 1.715.807l.011.014.09.132c.199.288.424.615.424 1.034 0 .35-.102.644-.202.93a4.974 4.974 0 0 0-.128.405c-.101 1.011.724 1.734 1.595 1.928 1.98.453 3.577-.95 4.343-2.289.036-.063.116-.085.178-.048s.084.115.048.178c-.702 1.229-2.074 2.508-3.808 2.508h-.001z" style="fill:var(--color1, #fff)"/>
      <path fill="#fff" d="M9.442 10.751h-.011a.131.131 0 0 1-.12-.14c.125-1.557.885-2.87 2.085-3.601.933-.534 1.888-.633 2.69-.282.438.188.727.562.931.867.176.282.174.568.172.844-.002.196-.003.381.061.549.269.807 1.145 1.173 1.846 1.173.749 0 1.471-.329 2.208-1.005.682-.683 1.076-1.571 1.272-2.876a.13.13 0 0 1 .148-.109c.071.011.12.077.11.148-.205 1.364-.621 2.298-1.349 3.026-.781.716-1.583 1.077-2.389 1.077s-1.784-.421-2.092-1.347c-.078-.209-.077-.428-.075-.638.002-.25.004-.487-.13-.701-.181-.272-.44-.608-.816-.77-.726-.318-1.597-.222-2.454.267-1.126.685-1.84 1.924-1.958 3.397a.131.131 0 0 1-.13.12l.001.001z" style="fill:var(--color1, #fff)"/>
      <path fill="#fff" d="M10.754 12.774a.131.131 0 0 1-.122-.084c-.716-1.85-.121-3.962 1.415-5.021.6-.42 1.36-.529 2.034-.293.597.21 1.041.674 1.223 1.275.395.626 1.187.905 1.979.693.789-.263 1.416-.821 1.807-1.61.493-.997.563-2.306.182-3.416a.13.13 0 1 1 .246-.084c.403 1.174.328 2.56-.195 3.617-.422.853-1.102 1.456-1.965 1.744-.918.245-1.833-.086-2.285-.821l-.014-.032a1.65 1.65 0 0 0-1.064-1.12 1.996 1.996 0 0 0-1.799.261c-1.439.992-1.994 2.974-1.32 4.713a.13.13 0 0 1-.121.177l-.001.002z" style="fill:var(--color1, #fff)"/>
      <path fill="#fff" d="M12.723 14.141a.128.128 0 0 1-.098-.045c-.968-1.113-1.768-3.05-.837-4.848.395-.723 1.003-1.225 1.672-1.38.852-.171 1.525.299 2.124.836.537.236 1.031.121 1.353-.02.605-.264 1.135-.851 1.35-1.497.443-1.378.093-2.908-.962-4.196-.045-.055-.037-.138.018-.183s.138-.037.183.018c1.111 1.358 1.478 2.977 1.007 4.442-.241.724-.814 1.358-1.494 1.655-.536.234-1.083.237-1.582.01l-.018-.008-.015-.014c-.553-.498-1.167-.937-1.911-.789-.593.137-1.139.592-1.497 1.247-.869 1.679-.11 3.503.804 4.555a.131.131 0 0 1-.098.216h-.001z" style="fill:var(--color1, #fff)"/>
      <path fill="#fff" d="M15.074 14.633a.13.13 0 0 1-.06-.015c-1.56-.811-2.592-2.235-2.695-3.716-.036-.789.283-1.626.812-2.135.397-.382.882-.562 1.401-.52.232.001.461.056.681.108.32.077.622.149.916.061.651-.186 1.16-.798 1.332-1.598.388-1.941-.994-3.553-2.443-4.229a.13.13 0 1 1 .11-.236c1.538.718 3.004 2.438 2.588 4.518-.192.896-.772 1.583-1.514 1.795-.36.108-.711.024-1.051-.058-.217-.052-.423-.101-.626-.101h-.011c-.447-.038-.862.117-1.204.447-.478.46-.765 1.218-.733 1.932.096 1.388 1.075 2.73 2.555 3.499a.13.13 0 0 1 .056.176.13.13 0 0 1-.116.07v-.001z" style="fill:var(--color1, #fff)"/>
      <path fill="#102c3a" d="m23.373 11.415-16.283.01v.002h.006c.108.329.234.65.38.959a8.516 8.516 0 0 0 1.064 1.72c1.569 1.967 3.985 3.228 6.697 3.228s5.128-1.261 6.697-3.228c.259-.326.496-.67.707-1.032.109-.188.212-.381.306-.578.168-.345.311-.701.431-1.069l-.004-.011z" style="fill:var(--color3, #102c3a)"/>
      <path fill="#16394f" d="M23.36 11.425H7.094v.002h.003c.108.329.234.65.38.959 1.932 1.713 4.71 2.787 7.798 2.787s5.748-1.028 7.672-2.677c.159-.327.296-.664.412-1.012a.142.142 0 0 1 .003-.058l-.001-.001z" style="fill:var(--color4, #16394f)"/>
      <path fill="#fff" d="M15.272.765a.103.103 0 1 1-.206 0 .103.103 0 0 1 .206 0zM14.585.786a.103.103 0 1 1-.206.018.103.103 0 0 1 .206-.018zM13.902.867c.01.056-.027.11-.084.12s-.11-.027-.12-.084c-.01-.056.027-.11.084-.12s.11.027.12.084zM13.229 1.007a.104.104 0 0 1-.2.054.104.104 0 0 1 .2-.054zM12.57 1.205a.103.103 0 1 1-.194.07.103.103 0 0 1 .194-.07zM11.932 1.46c.024.052.002.113-.05.137s-.113.002-.137-.05c-.024-.052-.002-.113.05-.137s.113-.002.137.05zM11.318 1.769a.103.103 0 1 1-.179.103.103.103 0 0 1 .179-.103zM10.734 2.131c.033.047.021.111-.025.144s-.111.021-.144-.025c-.033-.047-.021-.111.025-.144s.111-.021.144.025zM10.182 2.543c.037.044.031.109-.013.146s-.109.031-.146-.013-.031-.109.013-.146a.103.103 0 0 1 .146.013zM9.67 3c.04.04.04.106 0 .146s-.106.04-.146 0-.04-.106 0-.146c.04-.04.106-.04.146 0zM9.198 3.501c.044.037.049.102.013.146s-.102.049-.146.013-.049-.102-.013-.146a.104.104 0 0 1 .146-.013zM8.773 4.041a.104.104 0 0 1-.119.17c-.047-.033-.058-.097-.025-.144s.097-.058.144-.025zM8.396 4.616c.049.029.066.092.038.141s-.092.066-.141.038-.066-.092-.038-.141a.104.104 0 0 1 .141-.038zM8.07 5.222a.103.103 0 1 1-.087.187.103.103 0 0 1 .087-.187zM7.799 5.854c.053.019.081.079.062.132s-.079.081-.132.062c-.053-.019-.081-.079-.062-.132s.079-.081.132-.062zM7.583 6.506c.055.015.088.071.073.127s-.071.088-.127.073c-.055-.015-.088-.071-.073-.127s.071-.088.127-.073zM7.306 7.268a.103.103 0 1 1 .087-.187.103.103 0 0 1-.087.187zM7.203 7.836a.103.103 0 1 1 .087-.187.103.103 0 0 1-.087.187zM7.046 8.433a.103.103 0 1 1 .087-.187.103.103 0 0 1-.087.187zM23.049 8.065a.103.103 0 1 1 0-.206.103.103 0 0 1 0 .206zM23.153 8.749a.103.103 0 1 1 0-.206.103.103 0 0 1 0 .206zM23.153 9.568a.103.103 0 1 1 0-.206.103.103 0 0 1 0 .206zM22.948 7.379c-.056.01-.11-.027-.12-.084s.027-.11.084-.12c.056-.01.11.028.12.084s-.027.11-.084.12zM22.808 6.706a.104.104 0 0 1-.054-.2.104.104 0 0 1 .054.2zM22.61 6.048a.103.103 0 1 1-.07-.194.103.103 0 0 1 .07.194zM22.355 5.409c-.052.024-.113.002-.137-.05s-.002-.113.05-.137c.052-.024.113-.002.137.05s.002.113-.05.137zM22.045 4.795c-.049.029-.113.012-.141-.038s-.012-.112.038-.141c.049-.029.113-.012.141.038s.012.113-.038.141zM21.684 4.21c-.047.033-.111.021-.144-.025s-.021-.111.025-.144c.047-.033.111-.021.144.025s.021.111-.025.144zM21.272 3.659c-.044.037-.109.031-.146-.013s-.031-.109.013-.146.109-.031.146.013a.103.103 0 0 1-.013.146zM20.814 3.147c-.04.04-.106.04-.146 0s-.04-.106 0-.146c.04-.04.106-.04.146 0s.04.106 0 .146zM20.314 2.675c-.037.044-.102.049-.146.013s-.049-.102-.013-.146c.037-.044.102-.049.146-.013s.049.102.013.146zM19.774 2.25c-.033.047-.097.058-.144.025s-.058-.097-.025-.144.097-.058.144-.025a.103.103 0 0 1 .025.144zM19.199 1.873c-.029.049-.092.066-.141.038s-.066-.092-.038-.141c.029-.049.092-.066.141-.038s.066.092.038.141zM18.593 1.547a.103.103 0 1 1-.187-.087.103.103 0 0 1 .187.087zM17.961 1.276c-.019.053-.079.081-.132.062s-.081-.079-.062-.132c.019-.053.079-.081.132-.062s.081.079.062.132zM17.309 1.061c-.015.055-.071.088-.127.073s-.088-.071-.073-.127c.015-.055.071-.088.127-.073s.088.071.073.127zM16.639.903c-.01.056-.064.094-.12.084s-.094-.064-.084-.12c.01-.056.064-.094.12-.084s.094.064.084.12zM15.958.804a.103.103 0 1 1-.206-.018.103.103 0 0 1 .206.018z" style="fill:var(--color1, #fff)"/>
      <path d="M9.917 12.218h-.841a.056.056 0 1 0 0 .112h.931a.947.947 0 0 1-.073-.088l-.016-.023zM10.984 12.218a1.477 1.477 0 0 1-.094.111h4.159c-.23-.039-.472-.076-.72-.111h-3.345zM20.73 13.055h-3.234c-.031 0-.055.025-.055.056s.025.055.055.055h3.234c.031 0 .055-.025.055-.055s-.025-.056-.055-.056zM14.172 14.691h3.234c.031 0 .055-.025.055-.056s-.025-.055-.055-.055h-3.234c-.031 0-.056.025-.056.055s.025.056.056.056zM15.826 15.559h-2.094c-.031 0-.056.025-.056.055s.025.056.056.056h2.094c.031 0 .056-.025.056-.056s-.025-.055-.056-.055zM11.583 14.053a.056.056 0 1 0 0 .112h2.399a.056.056 0 1 0 0-.112h-2.399zM13.787 14.636a.055.055 0 0 0-.056-.055h-2.399c-.031 0-.056.025-.056.055s.025.056.056.056h2.399a.056.056 0 0 0 .056-.056zM17.245 15.559h-.908c-.031 0-.055.025-.055.055s.025.056.055.056h.908c.031 0 .055-.025.055-.056s-.025-.055-.055-.055zM11.102 14.053h-.454c-.031 0-.055.025-.055.056s.025.056.055.056h.454a.056.056 0 1 0 0-.112zM10.254 12.69a.055.055 0 0 0-.056-.055h-.825c-.031 0-.056.025-.056.055s.025.056.056.056h.825a.056.056 0 0 0 .056-.056zM20.373 13.513h-1.52c-.031 0-.055.025-.055.056s.025.056.055.056h1.52c.031 0 .055-.025.055-.056s-.025-.056-.055-.056zM19.334 14.58h-1.52c-.031 0-.055.025-.055.055s.025.056.055.056h1.52c.031 0 .055-.025.055-.056s-.025-.055-.055-.055zM12.954 12.746c.031 0 .056-.025.056-.056s-.025-.055-.056-.055h-2.09c-.031 0-.055.025-.055.055s.025.056.055.056h2.09zM16.144 13.569c0 .031.025.056.055.056h2.09c.031 0 .055-.025.055-.056s-.025-.056-.055-.056h-2.09a.055.055 0 0 0-.055.056zM17.084 13.055h-2.09c-.031 0-.055.025-.055.056s.025.055.055.055h2.09c.031 0 .055-.025.055-.055s-.025-.056-.055-.056zM15.96 13.569a.056.056 0 0 0-.056-.056H9.908c-.031 0-.055.025-.055.056s.025.056.055.056h5.996a.056.056 0 0 0 .056-.056zM20.022 14.053h-5.65a.056.056 0 1 0 0 .112h5.65c.031 0 .055-.025.055-.056s-.025-.056-.055-.056zM14.618 13.111a.056.056 0 0 0-.056-.056h-5.28c-.031 0-.056.025-.056.056s.025.055.056.055h5.28a.056.056 0 0 0 .056-.055zM18.29 15.126h-5.65a.056.056 0 1 0 0 .112h5.65c.031 0 .055-.025.055-.056s-.025-.056-.055-.056z" style="fill:var(--color2, #000)"/>
      <path d="M21.262 12.218H9.493v.111h11.769c.031 0 .055-.025.055-.056s-.025-.056-.055-.056v-.001zM21 12.635h-7.606c-.031 0-.056.025-.056.055s.025.056.056.056H21c.031 0 .055-.025.055-.056s-.025-.055-.055-.055z" style="fill:var(--color2, #000)"/>
      <path fill="#16394f" d="M11.036 9.917c0-.171-.056-.283-.056-.527a.348.348 0 0 0-.003-.047 4.48 4.48 0 0 1-.422-.487 23.924 23.924 0 0 0-.457-.134c-.603.028-1.207.055-1.81.075-.004.004-1.096.044-1.71.048.1 1.187.117 1.294.276 1.912.094.368.17.678.328 1.003.13.267.266.61.403.855.375.084.745.216.872.132.186-.122.518-.015.723.119.204.134 1.049.011 1.133.067.033.021.078-.005.129-.055.08-.079.173-.219.24-.325.11-.171 0-.283 0-.405s-.277-.515-.388-.698c-.111-.185-.279-.049-.148-.356.129-.306.499-.564.797-.76.296-.197.093-.246.093-.417l-.001-.001zM11.989 10.152a1.387 1.387 0 0 0-.044.378c0 .38-.093.735-.093.735.268-.177.315-.392.76-.686l.037-.025a12.061 12.061 0 0 1-.66-.401v-.001z" style="fill:var(--color4, #16394f)"/>
      <path fill="#102c3a" d="m12.648 10.553-.037.025c-.445.295-.492.509-.76.686 0 0 .093-.355.093-.735 0-.185.022-.294.044-.378a6.35 6.35 0 0 1-1.011-.809c.002.014.003.03.003.047 0 .245.056.356.056.527s.204.22-.093.417c-.297.196-.667.454-.797.76-.131.307.037.171.148.356.111.184.388.576.388.698s.11.234 0 .405c-.068.106-.16.246-.24.325.372.061 1.423.074 1.423.074l3.162-.496s.549.118.761.01c-.901-.798-2.067-1.304-3.14-1.912l-.001.001z" style="fill:var(--color3, #102c3a)"/>
      <path fill="#16394f" d="M.187 24.463c.074-.037.141-.101.201-.193s.089-.212.089-.36v-3.4c0-.149-.03-.267-.089-.356s-.125-.151-.197-.186a.443.443 0 0 0-.189-.052h3.356c.302 0 .578.049.828.149s.446.241.59.427c.144.186.215.402.215.65 0 .228-.062.427-.186.598s-.297.303-.52.397c.307.069.546.197.716.382s.256.422.256.709c0 .233-.073.448-.219.646s-.344.355-.594.471c-.25.117-.523.175-.82.175H.001a.44.44 0 0 0 .186-.055v-.001zm3.453-2.628c.213-.161.319-.392.319-.694 0-.327-.106-.576-.319-.75s-.485-.26-.817-.26H1.509v1.945h1.314c.331 0 .604-.08.817-.241zm.021 2.331a1.037 1.037 0 0 0 .564-.939c0-.302-.106-.533-.319-.694s-.485-.241-.817-.241H1.508v1.626c0 .158.036.261.107.308s.16.073.264.078h1.21c.208 0 .398-.046.572-.137zM5.6 24.318c.149-.133.257-.282.327-.445l1.834-3.957h.935l1.789 3.972c.064.144.166.285.304.423s.235.208.29.208H8.986c.114 0 .216-.04.308-.119s.137-.181.137-.304a.445.445 0 0 0-.037-.186l-.46-1.024H6.655l-.438.943a.608.608 0 0 0-.067.26c0 .133.054.239.163.316s.253.115.431.115H5.259c.079 0 .193-.067.342-.201H5.6zm3.229-1.663-1.017-2.287-1.054 2.287h2.071zM11.416 24.467c.072-.035.137-.097.196-.186s.089-.208.089-.356V20.51c0-.149-.03-.267-.089-.356s-.125-.151-.196-.186a.443.443 0 0 0-.189-.052h1.982c-.054 0-.118.017-.189.052s-.137.097-.197.186a.636.636 0 0 0-.089.356v1.819l2.606-1.908c.109-.069.163-.149.163-.238 0-.074-.035-.137-.104-.189s-.156-.078-.26-.078h1.403c-.049 0-.13.036-.241.107s-.268.18-.471.323l-2.19 1.596 1.685 1.618c.218.218.422.405.612.561s.405.288.642.397h-2.257a.211.211 0 0 0 .215-.216c0-.119-.06-.24-.178-.364l-1.626-1.559v1.544c0 .149.03.267.089.356s.125.151.197.186a.443.443 0 0 0 .189.052h-1.982a.44.44 0 0 0 .189-.052v.001z" style="fill:var(--color4, #16394f)"/>
      <path fill="#16394f" d="M17.645 24.374c-.423-.21-.744-.501-.962-.872s-.327-.799-.327-1.284c0-.451.109-.862.327-1.236s.54-.672.965-.894c.426-.223.933-.334 1.522-.334s1.094.105 1.515.316c.421.21.74.501.958.872s.327.799.327 1.284c0 .451-.109.862-.327 1.236s-.538.672-.961.894c-.423.222-.927.334-1.511.334s-1.103-.105-1.526-.316zm2.824-.538c.277-.421.416-.958.416-1.611s-.139-1.198-.416-1.618c-.277-.42-.71-.633-1.299-.638s-1.024.206-1.307.631c-.282.426-.423.965-.423 1.618s.141 1.2.423 1.626c.282.426.718.636 1.307.631s1.022-.218 1.299-.638zM23.903 24.467c.072-.035.137-.097.197-.186s.089-.208.089-.356v-3.794h-.958c-.203 0-.377.066-.523.197s-.256.281-.33.449c-.074.169-.111.302-.111.401v-1.262h4.878v1.262c0-.099-.037-.233-.111-.401s-.184-.318-.33-.449a.758.758 0 0 0-.523-.197h-.958v3.794c0 .149.03.267.089.356s.125.151.197.186a.443.443 0 0 0 .189.052h-1.982a.436.436 0 0 0 .189-.052zM26.52 24.318c.149-.133.257-.282.327-.445l1.834-3.957h.936l1.789 3.972c.064.144.166.285.304.423s.235.208.29.208h-2.093c.114 0 .216-.04.308-.119s.137-.181.137-.304a.445.445 0 0 0-.037-.186l-.46-1.024h-2.279l-.438.943a.608.608 0 0 0-.067.26c0 .133.054.239.163.316s.253.115.431.115H26.18c.079 0 .193-.067.342-.201h-.001zm3.23-1.663-1.017-2.287-1.054 2.287h2.071z" style="fill:var(--color4, #16394f)"/>
      <path fill="#1baf9a" d="M18.358 28.68c0-.017.003-.034.006-.05.152-.725.574-1.751.748-2.184.053-.129.146-.188.236-.188.144.003.287.135.287.287a.27.27 0 0 1-.07.174c-.203.236-.408.697-.565 1.158.247-.374.599-.768.9-.942a.719.719 0 0 1 .374-.104c.596 0 1.223.678 2.021.678.157 0 .323-.028.497-.093a.184.184 0 0 1 .07-.014c.048 0 .076.025.076.059 0 .031-.022.068-.073.09a1.191 1.191 0 0 1-.512.115c-.731 0-1.403-.635-1.943-.635a.557.557 0 0 0-.332.101c-.461.315-1.119 1.226-1.304 1.563-.031.124-.124.18-.214.18-.104 0-.203-.073-.203-.194h.002z" style="fill:var(--color5, #1baf9a)"/>
      <path fill="#1baf9a" d="M23.905 26.912c.07.132.098.256.098.368 0 .646-.984.959-1.113 1.023.006.315.318.399.638.399.242 0 .489-.048.619-.079 1.046-.264 2.303-.964 2.682-1.279a.08.08 0 0 1 .045-.014c.056 0 .104.062.104.124 0 .039-.017.076-.068.098-.38.236-1.673.922-2.73 1.172a3.87 3.87 0 0 1-.852.124c-.447 0-.807-.155-.807-.678 0-.096.011-.203.037-.32.079-.38.315-.703.672-.95a.682.682 0 0 1 .382-.129h.003c.126 0 .239.045.29.14v.001zm-.425.169c-.225.216-.512.694-.576 1.071.638-.349.944-.888.944-1.125 0-.07-.028-.115-.084-.115-.062 0-.157.05-.284.169z" style="fill:var(--color5, #1baf9a)"/>
      <path fill="#1baf9a" d="M26.089 31.702a2.38 2.38 0 0 1-.009-.216c0-.801.242-2.227.587-3.638.309-1.265 1.091-4.672 2.168-5.522a.284.284 0 0 1 .169-.062c.214 0 .397.287.397.464v.02c-.098 1.256-1.754 3.59-2.497 4.928-.326 1.077-.54 2.069-.54 2.929 0 .329.031.63.104.885a.644.644 0 0 1 .025.172c0 .203-.113.332-.219.332-.087 0-.172-.087-.185-.292zm3.121-8.99c.003-.034.006-.065.006-.09 0-.093-.022-.121-.053-.121-.053.003-.14.107-.214.225-.284.453-.515 1.02-.756 1.58-.315.742-.722 1.687-1.113 2.834.632-1.049 2.032-3.503 2.131-4.428z" style="fill:var(--color5, #1baf9a)"/>
      <path fill="#1baf9a" d="m32.662 29.709.006-.121c.031-.425.247-.928.576-1.462-.205-.2-.362-.484-.45-.866-.039-.177-.009-.456-.183-.456-.09 0-.228.07-.456.256-.048.039-1.586 1.324-2.381 1.324-.205 0-.36-.084-.43-.298a.795.795 0 0 1-.034-.242c0-.253.093-.489.093-.489-.203.408-.869 1.507-1.409 1.507-.152 0-.295-.09-.413-.309a.515.515 0 0 1-.05-.239c0-.422.334-1.08.793-1.434.231-.177.475-.256.703-.256.172 0 .332.045.475.124.093-.191.191-.264.273-.264.118 0 .205.146.205.309a.413.413 0 0 1-.045.191l-.059.118a.335.335 0 0 1 .056.166c0 .109-.096.157-.194.16-.048.183-.07.329-.07.444 0 .262.113.363.292.363.559 0 1.751-.998 2.038-1.22.329-.259.562-.354.734-.354.329 0 .419.351.472.554.062.236.146.433.244.593.419-.615.964-1.256 1.529-1.847.132-.138.236-.194.312-.194h.003c.096 0 .146.087.146.197a.466.466 0 0 1-.219.388c-.441.267-1.139.911-1.673 1.6.267.349.624.489 1.01.489.691 0 1.473-.458 1.982-.99.053-.05.098-.07.135-.07.05 0 .081.037.081.087 0 .042-.022.093-.076.138-.641.523-1.544.928-2.328.928-.377 0-.725-.093-1.003-.312-.329.469-.562.942-.562 1.31a.6.6 0 0 0 .146.416c.014.014.02.031.02.045 0 .045-.05.09-.109.09-.081 0-.18-.087-.18-.374l-.001.001zm-3.241-2.783c-.028-.084-.05-.135-.101-.135-.048 0-.118.042-.242.135-.315.242-.925 1.169-.925 1.49 0 .053.017.09.056.104l.011.003c.194 0 1.043-1.195 1.2-1.597z" style="fill:var(--color5, #1baf9a)"/>
      <path fill="#16394f" d="M18.419 10.545a7.136 7.136 0 0 0-.319.059c.085.018.208.056.272.03.067-.028.023-.04.047-.088v-.001zM20.055 10.506a.25.25 0 0 1-.133-.036l-.01.006h-.134a.922.922 0 0 1-.075-.003.163.163 0 0 1-.045.007 2.187 2.187 0 0 1-.304-.016 5.337 5.337 0 0 0-.641.041c-.051.076-.216.129-.216.207 0 .092-.135.149-.135.25s-.086.062-.305.154c-.22.092-.489.071-.489.169s-.172.138-.269.179c-.098.041-.183.163-.219.179-.008.004-.01.006-.006.007.012.004.104-.007.287-.027.233-.025.318-.056.55-.092.233-.036.501-.061.501-.031s.087.031.22.087c.134.056.232.128.232.056a.08.08 0 0 0-.003-.025c-.008-.035-.028-.015.076-.128.123-.133.117-.172.415-.297.3-.125.11-.015.306-.225.195-.21 0-.081.244-.235.16-.1.241-.17.296-.23a2.183 2.183 0 0 1-.14.005v-.001zM23.072 10.236c-.124-.015-.248-.044-.378-.053a1.16 1.16 0 0 0-.372.045.139.139 0 0 0-.003.027c0 .067-.147.056-.147.159s-.037.149-.037.22c0 .071-.134.092.061.174.196.081.44.189.525.317s-.024.071-.098.149c-.073.076-.256.24-.256.291s-.072.097 0 .169c.045.044.106.102.158.135.034.021.064.032.085.023.055-.023.525-.102.66-.159.012-.005-.029.04-.014.034.03-.071.062-.168.077-.214.075-.224.093-.28.133-.466.027-.126.043-.253.07-.373-.166-.164-.295-.318-.466-.479v-.001zM20.951 10.427c-.082 0-.163.006-.244.015v.018c0 .066.073.076.171.174.098.097-.073.154.219.276.294.123.324.212.501.286 0 0-.061-.148-.061-.306s-.061-.184-.061-.256c0-.071.006-.125.049-.144s.178.023.22.005c.029-.012-.01-.054-.037-.106-.251.04-.5.038-.757.038h.001z" style="fill:var(--color4, #16394f)"/>
      <path fill="#102c3a" d="M22.196 10.808c-.195-.082-.061-.102-.061-.174s.037-.118.037-.22c0-.102.147-.092.147-.159l.003-.027c-.157.04-.313.098-.462.132a2.72 2.72 0 0 1-.152.03c.028.051.066.094.037.106-.043.018-.178-.023-.22-.005s-.049.072-.049.144.061.097.061.256.061.306.061.306c-.177-.074-.207-.163-.501-.286-.293-.123-.122-.179-.219-.276s-.171-.107-.171-.174v-.018c-.171.018-.34.047-.511.059-.055.061-.135.13-.296.23-.244.154-.049.025-.244.235-.196.21-.006.1-.306.225-.299.125-.293.164-.415.297-.104.113-.084.093-.076.128a.741.741 0 0 0 .133.077c.13.052.513 0 .513 0l2.084.207s.693-.006.938-.031a1.073 1.073 0 0 1-.158-.135c-.072-.071 0-.118 0-.169s.183-.215.256-.291c.073-.077.184-.02.098-.149s-.329-.235-.525-.317l-.001.001zM18.419 10.545c-.024.048.02.06-.047.088-.064.026-.186-.011-.272-.03l-.051.01c-.298.271-.673.465-1 .706-.151.111-.306.218-.459.328.151.015.306.03.365.03a.213.213 0 0 0 .116-.032c-.004-.001-.002-.003.006-.007.037-.015.122-.138.219-.179s.269-.082.269-.179.268-.077.489-.169c.219-.092.305-.051.305-.154s.135-.158.135-.25c0-.078.165-.13.216-.207a7.073 7.073 0 0 0-.292.042v.002z" style="fill:var(--color3, #102c3a)"/>
    </symbol>

      <!--youtube-->
    <symbol id="youtube_icon" viewBox="0 0 32 32">
      <path fill="#ed1f24" style="fill:var(--color6, #ed1f24)" d="M31.331 8.298a4.007 4.007 0 0 0-2.829-2.829C26.006 4.8 16 4.8 16 4.8s-10.007 0-12.502.669A4.007 4.007 0 0 0 .669 8.298C.001 10.793.001 16 .001 16s0 5.207.668 7.702a4.007 4.007 0 0 0 2.829 2.829C5.994 27.2 16 27.2 16 27.2s10.007 0 12.502-.669a4.007 4.007 0 0 0 2.829-2.829C32 21.207 32 16 32 16s0-5.207-.669-7.702z"/>
      <path fill="#fff" style="fill:var(--color7, #fff)" d="m12.8 20.8 8.314-4.8-8.314-4.8v9.6z"/>
    </symbol>

    <symbol id="search-icon" viewBox="0 0 32 32">
      <path d="m27.413 24.587-6.227-6.227a9.242 9.242 0 0 0 1.473-5.033 9.333 9.333 0 1 0-18.666 0 9.333 9.333 0 0 0 9.333 9.333c1.869 0 3.61-.549 5.07-1.496l-.036.022 6.227 6.227c.362.361.861.585 1.413.585s1.052-.224 1.413-.585c.365-.36.59-.86.59-1.413s-.226-1.053-.59-1.413zM6.667 13.333A6.667 6.667 0 1 1 13.334 20a6.667 6.667 0 0 1-6.667-6.667z"/>
    </symbol>

    <!--Tsymbal Sergii-->
    <symbol id="TS" viewBox="0 0 32 32">
      <path d="M8 4.416C8 6.512 7.808 6.4 11.28 6.4h2.96v2.064l-.832.16c-2.032.432-3.792 1.728-4.208 3.104-.128.448-.24 1.168-.24 1.616 0 2.24.976 3.328 3.808 4.24l1.392.464.048 2.896.032 2.896h-.448c-.72 0-2.8-.576-3.696-1.024-.448-.224-.944-.416-1.136-.416-.288 0-.32.096-.32 1.008 0 .816.064 1.088.304 1.296.512.464 2.304 1.04 3.856 1.248l1.424.192.048 1.36.048 1.376h3.2l.048-1.472.048-1.488h.448c.24 0 .832-.128 1.312-.304 2.72-.928 3.68-2.112 3.696-4.496.016-1.44-.368-2.48-1.12-3.024-.752-.528-2.064-1.088-3.264-1.392l-1.088-.256v-2.944c0-3.296-.096-3.072 1.264-2.768l.8.16.096 2.304 2.96.096V11.68c0-1.408-.032-1.632-.336-1.936-.576-.576-2.56-1.264-3.696-1.264-1.008 0-1.088-.096-1.088-1.136V6.4h6.096l-.048-1.648L23.6 3.12l-7.792-.048L8 3.04v1.376zm6.24 8.784v2.48l-.592-.24c-1.36-.576-1.648-.976-1.648-2.288 0-.976.416-1.648 1.296-2.08.384-.192.752-.352.832-.352.064 0 .112 1.12.112 2.48zm4.352 5.936c1.152.384 1.488.848 1.488 2.032-.016 1.2-.304 1.728-1.264 2.192-1.232.592-1.216.624-1.216-2.08 0-1.328.064-2.4.128-2.4.08 0 .464.112.864.256z"/>
    </symbol>
  </defs>
</svg>

