<svg width="943" height="821" viewBox="0 0 943 821" fill="none" xmlns="http://www.w3.org/2000/svg">
<path d="M616.089 226.356C616.089 279.515 597.712 328.364 566.952 366.921C525.613 418.761 461.914 451.976 390.468 451.976C319.023 451.976 255.31 418.761 213.984 366.921C183.225 328.364 164.848 279.515 164.848 226.356C164.835 101.738 265.851 0.735107 390.468 0.735107C515.086 0.735107 616.089 101.738 616.089 226.356Z" fill="white"/>
<path d="M607.233 254.633C616.638 171.394 578.394 82.9299 505.395 38.3256C473.956 19.1124 437.789 7.30502 400.904 5.64624C397.574 5.50256 394.23 5.42419 390.886 5.42419C286.383 5.42419 183.251 91.3544 170.281 196.785C163.019 255.783 182.285 315.721 219.078 361.893C259.32 412.362 321.322 444.701 390.886 444.701C460.451 444.701 522.453 412.362 562.694 361.893C569.343 353.534 575.416 344.704 580.824 335.418C595.413 310.353 604.046 282.794 607.22 254.647L607.233 254.633Z" fill="url(#paint0_linear_7_449)"/>
<path d="M437.254 367.013C437.162 367.013 437.071 367.013 436.98 367.013C406.351 364.531 376.441 349.106 356.966 325.739C340.692 306.226 333.338 283.329 335.729 259.518C339.098 239.221 349.247 224.384 364.333 217.526L364.659 217.396C373.541 214.431 383.742 214.418 393.616 214.418C403.752 213.412 412.594 208.632 419.216 200.573C428.346 189.484 432.8 172.948 431.141 156.36C424.153 107.446 378.243 80.3045 335.859 75.1714C334.031 74.9494 332.724 73.2906 332.946 71.449C333.169 69.6204 334.827 68.3012 336.669 68.5363C381.587 73.9829 430.279 103.005 437.776 155.564C439.631 174.019 434.616 192.396 424.389 204.831C416.578 214.326 406.103 219.956 394.099 221.092H393.786C384.029 221.105 374.821 221.105 366.958 223.691C349.56 231.698 344.088 250.114 342.377 260.407C340.209 282.167 347.027 303.352 362.125 321.455C380.477 343.463 408.676 358 437.541 360.338C439.383 360.482 440.754 362.102 440.611 363.943C440.467 365.694 439.004 367.013 437.28 367.013H437.254Z" fill="white"/>
<path d="M454.064 341.099C428.986 341.099 405.162 333.511 384.774 318.673C366.018 303.679 353.91 280.482 353.792 259.505C353.701 244.002 359.996 230.614 372 220.792L372.444 220.426L372.979 220.23C386.067 215.476 401.975 207.874 408.911 191.221C420.967 156.36 394.988 123.302 364.372 109.993C340.587 99.9748 311.957 98.538 283.784 105.957C282.007 106.427 280.166 105.356 279.696 103.58C279.226 101.79 280.296 99.9617 282.073 99.4915C303.01 93.9796 334.736 90.2702 366.997 103.854C400.395 118.378 428.607 154.754 415.154 193.611C407.161 212.811 389.019 221.471 375.801 226.33C365.704 234.793 360.401 246.235 360.48 259.479C360.584 278.523 371.712 299.682 388.836 313.37C417.009 333.85 452.366 339.649 488.258 329.592C490.022 329.096 491.876 330.128 492.386 331.917C492.882 333.693 491.85 335.535 490.061 336.044C477.94 339.44 465.858 341.112 454.064 341.112V341.099Z" fill="white"/>
<path d="M449.623 313.997C427.275 313.997 405.215 307.009 387.282 290.356C380.803 283.891 377.642 277.399 374.299 270.542C373.724 269.38 373.149 268.178 372.535 266.963C364.79 249.905 371.059 234.65 378.152 220.478L378.544 219.681L379.288 219.185C390.482 211.714 397.443 198.81 397.443 185.487C397.443 168.011 385.453 150.195 365.365 137.826C325.776 115.204 279.004 131.596 248.466 154.493C246.99 155.603 244.887 155.302 243.79 153.826C242.68 152.351 242.98 150.248 244.456 149.151C276.692 124.974 326.272 107.799 368.774 132.092C390.952 145.742 404.131 165.686 404.131 185.5C404.131 200.965 396.529 215.384 383.755 224.253C377.303 237.249 372.222 250.101 378.583 264.09C379.157 265.226 379.745 266.428 380.32 267.616C383.546 274.238 386.341 279.959 391.931 285.55C430.11 320.998 488.977 309.021 524.947 279.711C526.384 278.536 528.487 278.758 529.65 280.194C530.812 281.631 530.603 283.734 529.166 284.896C507.681 302.399 478.423 314.01 449.636 314.01L449.623 313.997Z" fill="white"/>
<path d="M446.253 289.363C439.461 289.363 432.473 288.606 425.277 286.96C400.003 281.344 376.049 259.989 379.21 230.039L379.288 229.582C380.254 225.69 381.548 221.967 382.801 218.375C385.27 211.27 387.608 204.57 387.608 196.72C387.608 188.06 382.893 181.229 377.903 173.993C377.146 172.896 376.401 171.812 375.67 170.715C365.796 159.717 352.578 155.394 335.781 152.337C296.009 148.706 256.616 172.752 235.392 213.699C234.543 215.345 232.518 215.985 230.886 215.123C229.24 214.274 228.613 212.25 229.462 210.617C251.98 167.188 294.037 141.719 336.564 145.689L336.852 145.728C352.695 148.615 368.996 153.108 380.842 166.444L381.13 166.809C381.887 167.933 382.658 169.069 383.441 170.192C388.535 177.585 394.321 185.97 394.321 196.72C394.321 205.706 391.696 213.255 389.149 220.57C387.921 224.109 386.759 227.453 385.858 230.966C383.272 256.893 404.444 275.466 426.779 280.429C477.587 292.054 518.56 256.057 538.191 221.706C539.106 220.099 541.156 219.538 542.75 220.465C544.356 221.379 544.905 223.417 543.991 225.024C525.979 256.553 490.792 289.363 446.279 289.363H446.253Z" fill="white"/>
<path d="M242.249 275.819C242.158 275.819 242.066 275.819 241.975 275.819C240.133 275.675 238.762 274.056 238.905 272.214C242.105 232.259 261.606 198.587 292.404 179.831C316.346 166.143 340.836 163.596 361.42 172.609C372.653 177.428 380.085 187.028 385.309 194.865C389.829 202.088 389.776 209.428 389.724 216.521C389.685 221.549 389.646 226.29 391.278 230.614C398.188 251.329 420.666 260.707 438.652 260.707C457.865 260.707 476.399 252.269 495.311 234.924C512.814 217.409 522.91 194.617 527.939 161.128C528.213 159.299 529.95 158.032 531.739 158.32C533.568 158.594 534.822 160.292 534.548 162.12C529.297 197.125 518.626 221.066 499.935 239.744C479.899 258.121 459.314 267.381 438.652 267.381C417.989 267.381 392.885 256.567 384.97 232.821C382.958 227.453 382.997 221.85 383.037 216.442C383.089 210.016 383.128 203.956 379.693 198.457C375.043 191.482 368.408 182.849 358.756 178.708C340.13 170.558 317.782 173 295.8 185.552C266.922 203.133 248.584 234.911 245.567 272.71C245.423 274.46 243.96 275.793 242.236 275.793L242.249 275.819Z" fill="white"/>
<path d="M275.908 327.724C274.563 327.724 273.296 326.915 272.786 325.582C254.409 278.118 269.678 223.939 309.084 196.759C324.47 185.983 343.983 183.175 361.263 189.249C376.571 194.63 387.974 206.542 392.637 221.967C402.759 238.033 423.096 245.177 443.406 239.757C463.638 233.004 479.742 218.702 489.76 198.444C502.404 172.87 504.193 139.289 494.423 110.79C493.822 109.039 494.75 107.145 496.5 106.545C498.237 105.957 500.144 106.871 500.745 108.621C511.076 138.741 509.156 174.307 495.755 201.409C484.928 223.299 467.491 238.764 445.339 246.157C421.789 252.439 398.318 243.949 386.72 225.102L386.354 224.279C382.344 210.526 372.653 200.325 359.056 195.544C343.813 190.176 326.56 192.684 312.911 202.232C275.999 227.688 261.763 278.536 279.043 323.14C279.709 324.864 278.86 326.797 277.136 327.463C276.744 327.62 276.326 327.685 275.934 327.685L275.908 327.724Z" fill="white"/>
<path d="M326.416 362.807C325.489 362.807 324.548 362.415 323.895 361.657C299.066 333.105 278.546 283.407 302.409 237.275C312.532 218.715 328.153 205.836 345.316 201.879C367.18 197.49 384.434 209.546 399.82 223.339C413.587 229.399 426.269 226.434 434.524 222.829C450.054 216.063 463.651 200.991 469.163 184.429C480.526 149.072 471.54 109.823 444.49 76.7779C443.327 75.3542 443.536 73.2382 444.96 72.0758C446.397 70.9003 448.5 71.1223 449.662 72.546C478.175 107.394 487.592 148.928 475.51 186.519C469.319 205.105 454.638 221.353 437.189 228.968C423.448 234.963 409.407 235.054 396.594 229.229L396.124 229.02L395.745 228.668C381.561 215.894 365.796 204.622 346.726 208.423C331.523 211.936 317.495 223.6 308.313 240.41C286.03 283.499 305.492 330.297 328.95 357.269C330.164 358.666 330.008 360.769 328.623 361.984C327.996 362.533 327.213 362.807 326.429 362.807H326.416Z" fill="white"/>
<path d="M386.733 375.424C386.21 375.424 385.688 375.307 385.192 375.045C345.172 354.239 318.684 317.706 316.058 279.711C315.144 259.479 323.32 238.006 336.891 224.932C347.066 215.136 359.513 210.525 372.836 211.596C378.792 211.623 384.656 213.02 390.312 214.379C398.514 216.351 406.273 218.206 413.822 215.946C430.514 211.179 443.589 195.479 447.99 174.96C457.943 125.17 422.482 83.8049 385.309 66.4595C383.637 65.6758 382.906 63.6905 383.69 62.0187C384.473 60.3468 386.459 59.6285 388.13 60.3991C427.602 78.8155 465.205 122.95 454.534 176.318C449.61 199.306 434.733 216.926 415.703 222.372C406.455 225.141 397.456 222.986 388.744 220.896C383.167 219.564 377.903 218.297 372.692 218.297H372.418C360.95 217.317 350.305 221.301 341.528 229.765C329.276 241.559 321.897 261.02 322.733 279.345C325.188 314.95 350.305 349.38 388.274 369.129C389.907 369.978 390.547 372.002 389.698 373.635C389.097 374.784 387.934 375.437 386.733 375.437V375.424Z" fill="white"/>
<path d="M599.658 292.877L181.893 293.125C181.893 293.125 181.893 293.151 181.893 293.164H182.05C184.819 301.615 188.045 309.83 191.793 317.772C194.562 323.806 197.619 329.696 200.949 335.417C206.357 344.704 212.417 353.546 219.078 361.893C259.32 412.361 321.322 444.701 390.886 444.701C460.451 444.701 522.453 412.361 562.695 361.893C569.343 353.533 575.416 344.704 580.824 335.417C583.632 330.598 586.27 325.647 588.686 320.58C592.984 311.737 596.654 302.594 599.749 293.164C599.749 293.164 599.658 292.89 599.658 292.877Z" fill="#102C3A"/>
<path d="M599.331 293.125H181.997C181.997 293.125 181.997 293.151 181.997 293.164H182.076C184.845 301.615 188.071 309.83 191.819 317.772C241.387 361.723 312.649 389.269 391.879 389.269C471.109 389.269 539.354 362.899 588.713 320.58C592.788 312.195 596.301 303.535 599.279 294.627C599.214 294.131 599.24 293.621 599.345 293.138L599.331 293.125Z" fill="#16394F"/>
<path d="M391.827 19.6347C391.827 21.0976 390.638 22.2862 389.175 22.2862C387.712 22.2862 386.524 21.0976 386.524 19.6347C386.524 18.1719 387.712 16.9833 389.175 16.9833C390.638 16.9833 391.827 18.1719 391.827 19.6347Z" fill="white"/>
<path d="M374.194 20.1702C374.325 21.633 373.241 22.913 371.778 23.0437C370.315 23.1743 369.035 22.0902 368.904 20.6273C368.774 19.1644 369.858 17.8844 371.321 17.7538C372.783 17.6232 374.063 18.7073 374.194 20.1702Z" fill="white"/>
<path d="M356.679 22.2471C356.927 23.6838 355.974 25.0683 354.524 25.3165C353.087 25.5647 351.703 24.6112 351.455 23.1614C351.206 21.7116 352.16 20.3402 353.61 20.092C355.046 19.8438 356.431 20.7973 356.679 22.2471Z" fill="white"/>
<path d="M339.412 25.8389C339.791 27.2495 338.955 28.7124 337.531 29.0911C336.12 29.4699 334.658 28.634 334.279 27.2103C333.9 25.7997 334.736 24.3368 336.16 23.9581C337.57 23.5793 339.033 24.4152 339.412 25.8389Z" fill="white"/>
<path d="M322.511 30.9197C323.007 32.2911 322.302 33.8193 320.93 34.3156C319.559 34.8119 318.031 34.1066 317.534 32.7352C317.038 31.3637 317.743 29.8356 319.115 29.3393C320.486 28.8429 322.014 29.5482 322.511 30.9197Z" fill="white"/>
<path d="M306.132 37.4634C306.746 38.7957 306.171 40.363 304.852 40.99C303.519 41.6039 301.952 41.0292 301.325 39.71C300.711 38.3777 301.286 36.8104 302.605 36.1834C303.937 35.5696 305.505 36.1443 306.132 37.4634Z" fill="white"/>
<path d="M290.38 45.3918C291.111 46.6588 290.68 48.2784 289.413 49.0098C288.146 49.7412 286.527 49.3102 285.795 48.0433C285.064 46.7763 285.495 45.1567 286.762 44.4253C288.029 43.6939 289.648 44.1249 290.38 45.3918Z" fill="white"/>
<path d="M275.386 54.6782C276.222 55.8799 275.934 57.5256 274.733 58.3746C273.531 59.2105 271.885 58.9232 271.036 57.7215C270.2 56.5199 270.488 54.8742 271.689 54.0252C272.891 53.1892 274.537 53.4766 275.386 54.6782Z" fill="white"/>
<path d="M261.24 65.2317C262.181 66.355 262.037 68.0268 260.914 68.9672C259.79 69.9077 258.118 69.764 257.178 68.6407C256.238 67.5174 256.381 65.8456 257.505 64.9052C258.628 63.9648 260.3 64.1084 261.24 65.2317Z" fill="white"/>
<path d="M248.087 76.974C249.119 78.0058 249.119 79.6907 248.087 80.7225C247.056 81.7544 245.371 81.7544 244.339 80.7225C243.307 79.6907 243.307 78.0058 244.339 76.974C245.371 75.9421 247.056 75.9421 248.087 76.974Z" fill="white"/>
<path d="M235.993 89.8262C237.116 90.7666 237.26 92.4385 236.319 93.5617C235.379 94.685 233.707 94.8287 232.584 93.8883C231.461 92.9479 231.317 91.276 232.257 90.1527C233.198 89.0295 234.87 88.8858 235.993 89.8262Z" fill="white"/>
<path d="M225.074 103.684C226.275 104.52 226.563 106.179 225.727 107.38C224.891 108.582 223.232 108.869 222.03 108.034C220.829 107.198 220.541 105.539 221.377 104.337C222.213 103.136 223.872 102.848 225.074 103.684Z" fill="white"/>
<path d="M215.408 118.43C216.675 119.162 217.106 120.781 216.375 122.048C215.643 123.315 214.024 123.746 212.757 123.015C211.49 122.284 211.059 120.664 211.79 119.397C212.522 118.13 214.141 117.699 215.408 118.43Z" fill="white"/>
<path d="M207.049 133.973C208.381 134.587 208.956 136.168 208.329 137.5C207.715 138.832 206.135 139.407 204.802 138.78C203.47 138.166 202.895 136.586 203.522 135.253C204.136 133.921 205.717 133.346 207.049 133.973Z" fill="white"/>
<path d="M200.087 150.182C201.459 150.679 202.177 152.207 201.667 153.578C201.171 154.95 199.643 155.668 198.272 155.159C196.9 154.662 196.182 153.134 196.691 151.763C197.187 150.391 198.716 149.673 200.087 150.182Z" fill="white"/>
<path d="M194.562 166.927C195.973 167.306 196.822 168.755 196.443 170.179C196.064 171.59 194.614 172.439 193.191 172.06C191.78 171.681 190.931 170.231 191.31 168.808C191.689 167.397 193.139 166.548 194.562 166.927Z" fill="white"/>
<path d="M187.457 186.467C186.125 185.853 185.55 184.272 186.177 182.94C186.791 181.608 188.371 181.033 189.704 181.66C191.036 182.274 191.61 183.854 190.983 185.187C190.37 186.519 188.789 187.094 187.457 186.467Z" fill="white"/>
<path d="M184.805 201.03C183.473 200.416 182.898 198.836 183.525 197.503C184.139 196.171 185.72 195.596 187.052 196.223C188.384 196.837 188.959 198.418 188.332 199.75C187.718 201.082 186.138 201.657 184.805 201.03Z" fill="white"/>
<path d="M180.782 216.351C179.45 215.737 178.875 214.156 179.502 212.824C180.116 211.492 181.697 210.917 183.029 211.544C184.361 212.158 184.936 213.738 184.309 215.071C183.695 216.403 182.115 216.978 180.782 216.351Z" fill="white"/>
<path d="M591.364 206.921C589.902 206.921 588.713 205.732 588.713 204.269C588.713 202.806 589.902 201.618 591.364 201.618C592.827 201.618 594.016 202.806 594.016 204.269C594.016 205.732 592.827 206.921 591.364 206.921Z" fill="white"/>
<path d="M594.015 224.475C592.553 224.475 591.364 223.286 591.364 221.823C591.364 220.361 592.553 219.172 594.015 219.172C595.478 219.172 596.667 220.361 596.667 221.823C596.667 223.286 595.478 224.475 594.015 224.475Z" fill="white"/>
<path d="M594.015 245.491C592.553 245.491 591.364 244.302 591.364 242.839C591.364 241.376 592.553 240.188 594.015 240.188C595.478 240.188 596.667 241.376 596.667 242.839C596.667 244.302 595.478 245.491 594.015 245.491Z" fill="white"/>
<path d="M588.752 189.327C587.315 189.575 585.931 188.622 585.683 187.172C585.434 185.735 586.388 184.351 587.838 184.102C589.274 183.854 590.659 184.808 590.907 186.257C591.155 187.694 590.202 189.079 588.752 189.327Z" fill="white"/>
<path d="M585.16 172.047C583.75 172.426 582.287 171.59 581.908 170.166C581.529 168.755 582.365 167.292 583.789 166.914C585.199 166.535 586.662 167.371 587.041 168.795C587.42 170.205 586.584 171.668 585.16 172.047Z" fill="white"/>
<path d="M580.079 155.159C578.708 155.655 577.18 154.95 576.683 153.578C576.187 152.207 576.892 150.679 578.264 150.182C579.635 149.686 581.164 150.391 581.66 151.763C582.156 153.134 581.451 154.662 580.079 155.159Z" fill="white"/>
<path d="M573.536 138.78C572.204 139.394 570.636 138.819 570.009 137.5C569.395 136.167 569.97 134.6 571.289 133.973C572.622 133.359 574.189 133.934 574.816 135.253C575.43 136.585 574.855 138.153 573.536 138.78Z" fill="white"/>
<path d="M565.594 123.028C564.327 123.759 562.708 123.328 561.976 122.061C561.245 120.795 561.676 119.175 562.943 118.443C564.21 117.712 565.829 118.143 566.561 119.41C567.292 120.677 566.861 122.297 565.594 123.028Z" fill="white"/>
<path d="M556.321 108.02C555.119 108.856 553.473 108.569 552.624 107.367C551.788 106.166 552.076 104.52 553.277 103.671C554.479 102.835 556.125 103.122 556.974 104.324C557.81 105.526 557.522 107.171 556.321 108.02Z" fill="white"/>
<path d="M545.767 93.8883C544.644 94.8287 542.972 94.685 542.032 93.5617C541.091 92.4385 541.235 90.7666 542.358 89.8262C543.481 88.8858 545.153 89.0295 546.094 90.1527C547.034 91.276 546.89 92.9479 545.767 93.8883Z" fill="white"/>
<path d="M534.012 80.7356C532.98 81.7674 531.295 81.7674 530.263 80.7356C529.231 79.7038 529.231 78.0189 530.263 76.987C531.295 75.9552 532.98 75.9552 534.012 76.987C535.044 78.0189 535.044 79.7038 534.012 80.7356Z" fill="white"/>
<path d="M521.173 68.6407C520.232 69.764 518.56 69.9077 517.437 68.9672C516.314 68.0268 516.17 66.355 517.111 65.2317C518.051 64.1084 519.723 63.9648 520.846 64.9052C521.969 65.8456 522.113 67.5174 521.173 68.6407Z" fill="white"/>
<path d="M507.315 57.7215C506.479 58.9232 504.82 59.2105 503.618 58.3746C502.417 57.5387 502.129 55.8799 502.965 54.6782C503.801 53.4766 505.46 53.1892 506.662 54.0252C507.863 54.8611 508.151 56.5199 507.315 57.7215Z" fill="white"/>
<path d="M492.568 48.0433C491.837 49.3102 490.217 49.7412 488.95 49.0098C487.683 48.2784 487.252 46.6588 487.984 45.3918C488.715 44.1249 490.335 43.6939 491.602 44.4253C492.869 45.1567 493.3 46.7763 492.568 48.0433Z" fill="white"/>
<path d="M477.026 39.6968C476.412 41.029 474.832 41.6037 473.499 40.9768C472.167 40.3629 471.592 38.7825 472.219 37.4502C472.833 36.118 474.414 35.5433 475.746 36.1702C477.078 36.7841 477.653 38.3645 477.026 39.6968Z" fill="white"/>
<path d="M460.816 32.7353C460.32 34.1067 458.792 34.8251 457.42 34.3157C456.049 33.8194 455.331 32.2912 455.84 30.9198C456.336 29.5483 457.864 28.83 459.236 29.3393C460.607 29.8357 461.326 31.3638 460.816 32.7353Z" fill="white"/>
<path d="M444.072 27.2104C443.693 28.6211 442.243 29.47 440.82 29.0913C439.409 28.7125 438.56 27.2627 438.939 25.839C439.318 24.4284 440.767 23.5794 442.191 23.9582C443.602 24.337 444.451 25.7868 444.072 27.2104Z" fill="white"/>
<path d="M426.896 23.1744C426.648 24.6112 425.264 25.5777 423.827 25.3295C422.39 25.0814 421.424 23.6969 421.672 22.2601C421.92 20.8234 423.305 19.8569 424.741 20.105C426.178 20.3532 427.145 21.7377 426.896 23.1744Z" fill="white"/>
<path d="M409.433 20.6405C409.303 22.1033 408.023 23.1744 406.56 23.0568C405.097 22.9262 404.026 21.6462 404.144 20.1833C404.274 18.7205 405.554 17.6494 407.017 17.767C408.48 17.8976 409.551 19.1776 409.433 20.6405Z" fill="white"/>
<path d="M254.435 313.474H232.845C232.061 313.474 231.421 314.114 231.421 314.898C231.421 315.682 232.061 316.322 232.845 316.322H256.721C256.081 315.643 255.454 314.885 254.853 314.075C254.709 313.879 254.566 313.67 254.435 313.474Z" fill="url(#paint1_linear_7_449)"/>
<path d="M281.799 313.474C281.159 314.297 280.362 315.303 279.395 316.335H386.093C380.189 315.342 373.972 314.376 367.624 313.474H281.812H281.799Z" fill="url(#paint2_linear_7_449)"/>
<path d="M531.857 334.947H448.891C448.108 334.947 447.468 335.587 447.468 336.371C447.468 337.154 448.108 337.794 448.891 337.794H531.857C532.64 337.794 533.28 337.154 533.28 336.371C533.28 335.587 532.64 334.947 531.857 334.947Z" fill="url(#paint3_linear_7_449)"/>
<path d="M363.589 376.926H446.554C447.337 376.926 447.977 376.286 447.977 375.502C447.977 374.719 447.337 374.079 446.554 374.079H363.589C362.805 374.079 362.165 374.719 362.165 375.502C362.165 376.286 362.805 376.926 363.589 376.926Z" fill="url(#paint4_linear_7_449)"/>
<path d="M406.024 399.196H352.29C351.506 399.196 350.866 399.836 350.866 400.619C350.866 401.403 351.506 402.043 352.29 402.043H406.024C406.808 402.043 407.448 401.403 407.448 400.619C407.448 399.836 406.808 399.196 406.024 399.196Z" fill="url(#paint5_linear_7_449)"/>
<path d="M297.185 360.547C296.401 360.547 295.761 361.187 295.761 361.971C295.761 362.755 296.401 363.395 297.185 363.395H358.729C359.513 363.395 360.153 362.755 360.153 361.971C360.153 361.187 359.513 360.547 358.729 360.547H297.185Z" fill="url(#paint6_linear_7_449)"/>
<path d="M353.714 375.502C353.714 374.719 353.074 374.079 352.29 374.079H290.746C289.962 374.079 289.322 374.719 289.322 375.502C289.322 376.286 289.962 376.926 290.746 376.926H352.29C353.074 376.926 353.714 376.286 353.714 375.502Z" fill="url(#paint7_linear_7_449)"/>
<path d="M442.439 399.196H419.138C418.354 399.196 417.714 399.836 417.714 400.619C417.714 401.403 418.354 402.043 419.138 402.043H442.439C443.223 402.043 443.863 401.403 443.863 400.619C443.863 399.836 443.223 399.196 442.439 399.196Z" fill="url(#paint8_linear_7_449)"/>
<path d="M284.842 360.547H273.191C272.408 360.547 271.768 361.187 271.768 361.971C271.768 362.755 272.408 363.395 273.191 363.395H284.842C285.626 363.395 286.266 362.755 286.266 361.971C286.266 361.187 285.626 360.547 284.842 360.547Z" fill="url(#paint9_linear_7_449)"/>
<path d="M263.069 325.582C263.069 324.799 262.429 324.159 261.645 324.159H240.473C239.689 324.159 239.049 324.799 239.049 325.582C239.049 326.366 239.689 327.006 240.473 327.006H261.645C262.429 327.006 263.069 326.366 263.069 325.582Z" fill="url(#paint10_linear_7_449)"/>
<path d="M522.688 346.702H483.687C482.903 346.702 482.263 347.342 482.263 348.126C482.263 348.91 482.903 349.55 483.687 349.55H522.688C523.472 349.55 524.112 348.91 524.112 348.126C524.112 347.342 523.472 346.702 522.688 346.702Z" fill="url(#paint11_linear_7_449)"/>
<path d="M496.043 374.079H457.042C456.258 374.079 455.618 374.719 455.618 375.502C455.618 376.286 456.258 376.926 457.042 376.926H496.043C496.826 376.926 497.466 376.286 497.466 375.502C497.466 374.719 496.826 374.079 496.043 374.079Z" fill="url(#paint12_linear_7_449)"/>
<path d="M332.359 327.019C333.142 327.019 333.783 326.379 333.783 325.595C333.783 324.812 333.142 324.172 332.359 324.172H278.742C277.959 324.172 277.319 324.812 277.319 325.595C277.319 326.379 277.959 327.019 278.742 327.019H332.359Z" fill="url(#paint13_linear_7_449)"/>
<path d="M414.201 348.126C414.201 348.91 414.841 349.55 415.624 349.55H469.241C470.025 349.55 470.665 348.91 470.665 348.126C470.665 347.342 470.025 346.702 469.241 346.702H415.624C414.841 346.702 414.201 347.342 414.201 348.126Z" fill="url(#paint14_linear_7_449)"/>
<path d="M438.312 334.947H384.695C383.912 334.947 383.272 335.587 383.272 336.371C383.272 337.154 383.912 337.794 384.695 337.794H438.312C439.096 337.794 439.736 337.154 439.736 336.371C439.736 335.587 439.096 334.947 438.312 334.947Z" fill="url(#paint15_linear_7_449)"/>
<path d="M409.473 348.126C409.473 347.342 408.833 346.702 408.049 346.702H254.226C253.443 346.702 252.803 347.342 252.803 348.126C252.803 348.91 253.443 349.55 254.226 349.55H408.049C408.833 349.55 409.473 348.91 409.473 348.126Z" fill="url(#paint16_linear_7_449)"/>
<path d="M513.689 360.547H368.735C367.951 360.547 367.311 361.187 367.311 361.971C367.311 362.755 367.951 363.395 368.735 363.395H513.689C514.472 363.395 515.112 362.755 515.112 361.971C515.112 361.187 514.472 360.547 513.689 360.547Z" fill="url(#paint17_linear_7_449)"/>
<path d="M375.043 336.371C375.043 335.587 374.403 334.947 373.619 334.947H238.148C237.364 334.947 236.724 335.587 236.724 336.371C236.724 337.154 237.364 337.794 238.148 337.794H373.619C374.403 337.794 375.043 337.154 375.043 336.371Z" fill="url(#paint18_linear_7_449)"/>
<path d="M469.241 388.08H324.287C323.503 388.08 322.863 388.72 322.863 389.504C322.863 390.288 323.503 390.928 324.287 390.928H469.241C470.025 390.928 470.665 390.288 470.665 389.504C470.665 388.72 470.025 388.08 469.241 388.08Z" fill="url(#paint19_linear_7_449)"/>
<path d="M545.506 313.474H243.568V316.335H545.506C546.289 316.335 546.93 315.695 546.93 314.911C546.93 314.127 546.289 313.487 545.506 313.487V313.474Z" fill="url(#paint20_linear_7_449)"/>
<path d="M538.779 324.159H343.631C342.847 324.159 342.207 324.799 342.207 325.582C342.207 326.366 342.847 327.006 343.631 327.006H538.779C539.563 327.006 540.203 326.366 540.203 325.582C540.203 324.799 539.563 324.159 538.779 324.159Z" fill="url(#paint21_linear_7_449)"/>
<path d="M283.144 254.424C283.144 250.036 281.72 247.175 281.72 240.906C281.72 240.475 281.694 240.083 281.642 239.704C277.776 235.825 274.158 231.685 270.827 227.218C266.922 226.042 263.016 224.88 259.098 223.77C243.62 224.501 228.143 225.193 212.665 225.69C212.574 225.794 184.544 226.826 168.792 226.93C171.352 257.389 171.796 260.119 175.885 275.976C178.301 285.406 180.234 293.36 184.296 301.706C187.64 308.563 191.127 317.354 194.64 323.649C204.267 325.791 213.762 329.187 217.014 327.032C221.795 323.897 230.298 326.64 235.562 330.088C240.786 333.537 262.481 330.376 264.623 331.813C265.459 332.361 266.634 331.682 267.94 330.402C269.991 328.364 272.368 324.772 274.105 322.056C276.914 317.667 274.105 314.807 274.105 311.672C274.105 308.537 266.987 298.467 264.14 293.752C261.292 289.011 256.982 292.498 260.339 284.622C263.656 276.772 273.152 270.15 280.78 265.135C288.368 260.08 283.157 258.826 283.157 254.438L283.144 254.424Z" fill="#16394F"/>
<path d="M307.582 260.459C307.007 262.601 306.445 265.396 306.445 270.15C306.445 279.907 304.068 289.011 304.068 289.011C310.951 284.465 312.14 278.966 323.569 271.404C323.895 271.182 324.209 270.973 324.509 270.764C318.723 267.486 313.067 264.077 307.582 260.472V260.459Z" fill="#16394F"/>
<path d="M324.509 270.751C324.209 270.96 323.895 271.182 323.569 271.391C312.14 278.954 310.951 284.439 304.068 288.998C304.068 288.998 306.445 279.894 306.445 270.137C306.445 265.396 307.007 262.588 307.582 260.446C298.243 254.294 289.453 247.528 281.642 239.678C281.694 240.044 281.72 240.449 281.72 240.88C281.72 247.162 283.144 250.01 283.144 254.398C283.144 258.787 288.368 260.054 280.767 265.096C273.139 270.124 263.643 276.733 260.313 284.583C256.956 292.459 261.266 288.972 264.114 293.713C266.961 298.428 274.079 308.498 274.079 311.633C274.079 314.768 276.888 317.628 274.079 322.017C272.342 324.733 269.965 328.325 267.914 330.363C277.449 331.93 304.421 332.27 304.421 332.27L385.544 319.535C385.544 319.535 399.624 322.552 405.071 319.783C381.953 299.303 352.042 286.333 324.522 270.725L324.509 270.751Z" fill="#102C3A"/>
<path d="M4.80789 627.624C6.71484 626.671 8.42587 625.025 9.95404 622.674C11.4822 620.323 12.2398 617.241 12.2398 613.44V526.204C12.2398 522.39 11.4822 519.346 9.95404 517.061C8.42587 514.775 6.74094 513.195 4.91236 512.293C3.07072 511.405 1.45112 510.961 0.0535615 510.961H86.1536C93.8989 510.961 100.978 512.228 107.391 514.775C113.804 517.322 118.846 520.966 122.529 525.733C126.213 530.501 128.054 536.052 128.054 542.4C128.054 548.238 126.461 553.358 123.287 557.734C120.113 562.109 115.672 565.518 109.951 567.921C117.827 569.698 123.953 572.963 128.328 577.73C132.704 582.498 134.898 588.558 134.898 595.925C134.898 601.894 133.017 607.419 129.282 612.499C125.533 617.58 120.452 621.616 114.039 624.594C107.626 627.585 100.612 629.074 92.9977 629.074H0.0405273C1.30747 629.074 2.90094 628.604 4.80789 627.651V627.624ZM93.3764 560.202C98.8361 556.075 101.566 550.145 101.566 542.4C101.566 534.014 98.8361 527.614 93.3764 523.16C87.9168 518.719 80.929 516.499 72.4261 516.499H38.715V566.406H72.4261C80.929 566.406 87.9168 564.343 93.3764 560.215V560.202ZM93.9381 620.01C98.3789 617.659 101.905 614.393 104.505 610.201C107.104 606.008 108.41 601.254 108.41 595.912C108.41 588.166 105.68 582.236 100.221 578.096C94.7609 573.969 87.7732 571.905 79.2703 571.905H38.7019V613.623C38.7019 617.685 39.6162 620.323 41.4578 621.525C43.2995 622.74 45.5591 623.406 48.2236 623.523H79.2703C84.5993 623.523 89.4842 622.348 93.9381 619.997V620.01Z" fill="#16394F"/>
<path d="M143.663 623.915C147.476 620.493 150.258 616.679 152.048 612.486L199.095 510.961H223.088L268.999 612.865C270.644 616.548 273.257 620.166 276.809 623.719C280.362 627.272 282.844 629.048 284.241 629.048H230.533C233.459 629.048 236.084 628.029 238.435 626.005C240.786 623.98 241.962 621.368 241.962 618.194C241.962 616.418 241.648 614.837 241.008 613.427L229.201 587.148H170.726L159.493 611.337C158.343 613.753 157.782 615.974 157.782 617.998C157.782 621.42 159.179 624.124 161.975 626.096C164.77 628.069 168.453 629.048 173.024 629.048H134.925C136.962 629.048 139.875 627.337 143.689 623.902L143.663 623.915ZM226.51 581.244L200.414 522.573L173.364 581.244H226.51Z" fill="#16394F"/>
<path d="M292.888 627.729C294.729 626.841 296.414 625.247 297.929 622.962C299.457 620.676 300.215 617.633 300.215 613.819V526.204C300.215 522.39 299.457 519.346 297.929 517.061C296.401 514.775 294.716 513.195 292.888 512.293C291.046 511.405 289.426 510.961 288.029 510.961H338.889C337.492 510.961 335.872 511.405 334.031 512.293C332.189 513.181 330.504 514.775 328.989 517.061C327.474 519.346 326.703 522.39 326.703 526.204V572.872L393.564 523.918C396.359 522.141 397.757 520.104 397.757 517.818C397.757 515.911 396.869 514.292 395.092 512.959C393.316 511.627 391.095 510.961 388.431 510.961H424.428C423.161 510.961 421.097 511.888 418.237 513.717C415.376 515.559 411.354 518.328 406.142 521.998L349.952 562.945L393.185 604.467C398.775 610.057 404.013 614.85 408.898 618.847C413.783 622.844 419.282 626.24 425.368 629.035H367.468C368.996 629.035 370.289 628.526 371.373 627.507C372.444 626.488 372.993 625.156 372.993 623.51C372.993 620.467 371.464 617.358 368.421 614.171L326.703 574.178V613.793C326.703 617.606 327.461 620.65 328.989 622.935C330.517 625.221 332.189 626.815 334.031 627.703C335.872 628.591 337.492 629.035 338.889 629.035H288.029C289.426 629.035 291.046 628.591 292.888 627.703V627.729Z" fill="#16394F"/>
<path d="M452.705 625.339C441.852 619.944 433.623 612.486 428.033 602.965C422.442 593.443 419.647 582.459 419.647 570.011C419.647 558.452 422.442 547.885 428.033 538.298C433.623 528.711 441.878 521.057 452.797 515.35C463.716 509.629 476.725 506.781 491.837 506.781C506.949 506.781 519.906 509.485 530.694 514.879C541.483 520.274 549.672 527.732 555.263 537.253C560.853 546.775 563.648 557.76 563.648 570.207C563.648 581.766 560.853 592.333 555.263 601.92C549.672 611.507 541.457 619.161 530.603 624.869C519.749 630.576 506.818 633.437 491.837 633.437C476.856 633.437 463.546 630.733 452.692 625.339H452.705ZM525.17 611.533C532.275 600.744 535.841 586.965 535.841 570.194C535.841 553.423 532.288 539.461 525.17 528.672C518.051 517.884 506.949 512.424 491.837 512.293C476.725 512.163 465.558 517.57 458.309 528.489C451.073 539.409 447.455 553.253 447.455 570.011C447.455 586.769 451.073 600.81 458.309 611.729C465.545 622.648 476.725 628.042 491.837 627.925C506.949 627.794 518.064 622.335 525.17 611.546V611.533Z" fill="#16394F"/>
<path d="M613.268 627.729C615.11 626.841 616.794 625.247 618.31 622.962C619.838 620.676 620.595 617.633 620.595 613.819V516.486H596.027C590.816 516.486 586.349 518.171 582.6 521.528C578.851 524.897 576.03 528.737 574.123 533.048C572.216 537.371 571.263 540.793 571.263 543.34V510.961H696.403V543.34C696.403 540.806 695.45 537.371 693.543 533.048C691.636 528.737 688.814 524.884 685.066 521.528C681.317 518.171 676.837 516.486 671.639 516.486H647.07V613.819C647.07 617.633 647.828 620.676 649.356 622.962C650.884 625.247 652.556 626.841 654.398 627.729C656.239 628.617 657.859 629.061 659.257 629.061H608.396C609.794 629.061 611.413 628.617 613.255 627.729H613.268Z" fill="#16394F"/>
<path d="M680.416 623.915C684.23 620.493 687.012 616.679 688.801 612.486L735.848 510.961H759.854L805.752 612.865C807.397 616.548 810.01 620.166 813.562 623.719C817.115 627.272 819.597 629.048 820.994 629.048H767.286C770.199 629.048 772.837 628.029 775.188 626.005C777.539 623.98 778.715 621.368 778.715 618.194C778.715 616.418 778.401 614.837 777.761 613.427L765.954 587.148H707.479L696.246 611.337C695.097 613.753 694.535 615.974 694.535 617.998C694.535 621.42 695.932 624.124 698.728 626.096C701.523 628.069 705.206 629.048 709.777 629.048H671.678C673.715 629.048 676.628 627.337 680.442 623.902L680.416 623.915ZM763.263 581.244L737.167 522.573L710.117 581.244H763.263Z" fill="#16394F"/>
<path d="M470.991 735.824C470.991 735.393 471.07 734.962 471.135 734.531C475.027 715.919 485.855 689.6 490.322 678.485C491.693 675.168 494.071 673.653 496.382 673.653C500.066 673.718 503.736 677.114 503.736 681.006C503.736 682.443 503.161 684.036 501.933 685.473C496.735 691.533 491.471 703.367 487.435 715.187C493.783 705.6 502.796 695.491 510.515 691.024C513.689 689.143 516.863 688.36 520.102 688.36C535.397 688.36 551.475 705.744 571.955 705.744C575.991 705.744 580.249 705.026 584.716 703.367C585.434 703.08 586.009 703.001 586.518 703.001C587.746 703.001 588.464 703.654 588.464 704.516C588.464 705.313 587.89 706.253 586.584 706.828C582.117 708.918 577.78 709.78 573.457 709.78C554.701 709.78 537.46 693.48 523.615 693.48C520.585 693.48 517.777 694.198 515.099 696.079C503.266 704.151 486.391 727.53 481.636 736.177C480.84 739.351 478.462 740.787 476.151 740.787C473.486 740.787 470.952 738.907 470.952 735.811L470.991 735.824Z" fill="#1BAF9A"/>
<path d="M613.307 690.449C615.11 693.845 615.828 697.019 615.828 699.893C615.828 716.48 590.58 724.487 587.263 726.146C587.407 734.218 595.413 736.386 603.642 736.386C609.846 736.386 616.194 735.158 619.511 734.361C646.339 727.582 678.587 709.623 688.318 701.538C688.684 701.316 689.036 701.173 689.467 701.173C690.904 701.173 692.132 702.753 692.132 704.346C692.132 705.352 691.701 706.293 690.395 706.867C680.651 712.928 647.475 730.521 620.36 736.947C613.294 738.606 605.496 740.121 598.509 740.121C587.041 740.121 577.807 736.151 577.807 722.737C577.807 720.281 578.094 717.538 578.747 714.521C580.771 704.777 586.819 696.484 595.988 690.136C598.796 688.046 602.479 686.884 605.797 686.818H605.875C609.114 686.818 612.001 687.968 613.307 690.423V690.449ZM602.414 694.786C596.641 700.337 589.287 712.601 587.629 722.266C604.007 713.32 611.857 699.475 611.857 693.414C611.857 691.612 611.139 690.462 609.689 690.462C608.109 690.462 605.653 691.755 602.401 694.786H602.414Z" fill="#1BAF9A"/>
<path d="M669.353 813.356C669.209 811.697 669.131 809.816 669.131 807.805C669.131 787.246 675.335 750.675 684.204 714.469C692.132 682.012 712.194 594.593 739.819 572.806C741.19 571.801 742.627 571.226 744.142 571.226C749.628 571.226 754.317 578.579 754.317 583.125V583.634C751.796 615.869 709.307 675.742 690.264 710.067C681.892 737.692 676.419 763.148 676.419 785.222C676.419 793.66 677.216 801.379 679.084 807.936C679.515 809.516 679.737 810.966 679.737 812.337C679.737 817.536 676.85 820.853 674.107 820.853C671.874 820.853 669.706 818.62 669.353 813.356ZM749.419 582.694C749.497 581.832 749.562 581.035 749.562 580.382C749.562 578.005 748.988 577.273 748.191 577.273C746.82 577.352 744.586 580.016 742.705 583.046C735.417 594.658 729.5 609.221 723.309 623.576C715.237 642.619 704.775 666.848 694.744 696.275C710.966 669.368 746.885 606.4 749.419 582.681V582.694Z" fill="#1BAF9A"/>
<path d="M837.987 762.221L838.131 759.126C838.928 748.232 844.479 735.328 852.916 721.614C847.653 716.494 843.617 709.205 841.383 699.396C840.377 694.851 841.161 687.707 836.694 687.707C834.382 687.707 830.856 689.509 825.004 694.276C823.776 695.282 784.318 728.249 763.917 728.249C758.653 728.249 754.682 726.081 752.88 720.608C752.227 718.583 752.018 716.494 752.018 714.404C752.018 707.912 754.395 701.852 754.395 701.852C749.197 712.314 732.112 740.513 718.254 740.513C714.362 740.513 710.679 738.201 707.649 732.572C706.787 730.913 706.356 728.823 706.356 726.446C706.356 715.631 714.937 698.743 726.692 689.666C732.609 685.12 738.878 683.096 744.73 683.096C749.131 683.096 753.246 684.245 756.916 686.27C759.293 681.372 761.814 679.491 763.917 679.491C766.947 679.491 769.18 683.24 769.18 687.419C769.18 689.078 768.815 690.815 768.031 692.317L766.516 695.347C767.522 697.006 767.953 698.456 767.953 699.605C767.953 702.413 765.497 703.641 762.976 703.72C761.748 708.409 761.174 712.157 761.174 715.109C761.174 721.823 764.06 724.409 768.671 724.409C783.025 724.409 813.602 698.809 820.968 693.101C829.406 686.466 835.388 684.01 839.79 684.01C848.227 684.01 850.539 693.022 851.91 698.221C853.491 704.281 855.659 709.323 858.18 713.437C868.929 697.646 882.918 681.202 897.416 666.051C900.799 662.511 903.477 661.075 905.423 661.075H905.501C907.956 661.075 909.25 663.308 909.25 666.129C909.25 669.59 907.369 673.848 903.62 676.082C892.296 682.939 874.402 699.449 860.701 717.12C867.558 726.067 876.714 729.672 886.601 729.672C904.339 729.672 924.401 717.917 937.449 704.281C938.82 702.988 939.97 702.479 940.91 702.479C942.203 702.479 943 703.419 943 704.712C943 705.796 942.425 707.089 941.054 708.252C924.61 721.666 901.452 732.049 881.338 732.049C871.672 732.049 862.725 729.672 855.594 724.043C847.156 736.086 841.174 748.206 841.174 757.65C841.174 761.829 842.324 765.434 844.923 768.321C845.288 768.686 845.432 769.117 845.432 769.47C845.432 770.619 844.139 771.782 842.624 771.782C840.534 771.782 838.013 769.548 838.013 762.195L837.987 762.221ZM754.826 690.815C754.108 688.647 753.533 687.354 752.227 687.354C750.999 687.354 749.197 688.438 746.023 690.815C737.938 697.019 722.29 720.817 722.29 729.045C722.29 730.417 722.721 731.357 723.727 731.71L724.014 731.775C728.991 731.775 750.777 701.12 754.813 690.802L754.826 690.815Z" fill="#1BAF9A"/>
<path d="M472.572 270.555C469.842 270.999 467.112 271.509 464.395 272.07C466.576 272.54 469.724 273.507 471.37 272.828C473.081 272.109 471.958 271.809 472.585 270.568L472.572 270.555Z" fill="#16394F"/>
<path d="M514.525 269.536C513.166 269.536 512.03 269.184 511.116 268.609C510.959 268.7 510.855 268.753 510.855 268.753H507.406C506.74 268.753 506.113 268.727 505.486 268.674C505.134 268.779 504.755 268.844 504.337 268.844C501.699 268.909 499.112 268.727 496.526 268.426C496.357 268.439 496.187 268.452 496.004 268.452C490.636 268.465 485.333 268.844 480.069 269.484C478.763 271.443 474.518 272.789 474.518 274.787C474.518 277.151 471.044 278.601 471.044 281.213C471.044 283.825 468.849 282.794 463.22 285.158C457.565 287.509 450.681 286.986 450.681 289.494C450.681 292.002 446.28 293.034 443.772 294.092C441.264 295.136 439.083 298.284 438.142 298.676C437.933 298.768 437.881 298.82 437.986 298.846C438.299 298.95 440.65 298.676 445.339 298.154C451.308 297.501 453.503 296.717 459.445 295.803C465.414 294.888 472.298 294.235 472.298 295.019C472.298 295.803 474.518 295.803 477.953 297.239C481.388 298.676 483.896 300.518 483.896 298.676C483.896 298.389 483.87 298.193 483.818 298.036C483.609 297.135 483.112 297.644 485.777 294.758C488.938 291.349 488.781 290.356 496.435 287.143C504.128 283.93 499.256 286.751 504.285 281.37C509.287 275.989 504.285 279.28 510.541 275.336C514.642 272.763 516.732 270.986 518.13 269.432C516.928 269.51 515.74 269.562 514.525 269.562V269.536Z" fill="#16394F"/>
<path d="M591.939 262.614C588.752 262.235 585.578 261.491 582.234 261.256C579.087 261.033 575.873 261.582 572.687 262.405C572.647 262.653 572.621 262.888 572.621 263.11C572.621 264.821 568.846 264.547 568.846 267.185C568.846 269.824 567.906 270.999 567.906 272.828C567.906 274.656 564.458 275.179 569.473 277.295C574.502 279.385 580.758 282.154 582.953 285.419C585.173 288.697 582.326 287.247 580.445 289.233C578.564 291.192 573.875 295.398 573.875 296.704C573.875 298.01 572.02 299.199 573.875 301.04C575.025 302.177 576.592 303.665 577.937 304.514C578.799 305.05 579.583 305.337 580.131 305.102C581.542 304.501 593.611 302.477 597.059 301.027C597.372 300.897 596.314 302.059 596.693 301.902C597.451 300.087 598.287 297.579 598.678 296.416C600.599 290.67 601.056 289.233 602.101 284.465C602.806 281.226 603.211 277.974 603.903 274.905C599.632 270.686 596.34 266.741 591.952 262.627L591.939 262.614Z" fill="#16394F"/>
<path d="M537.513 267.525C535.41 267.525 533.32 267.682 531.243 267.904V268.361C531.243 270.059 533.124 270.32 535.619 272.828C538.127 275.309 533.738 276.772 541.248 279.907C548.785 283.055 549.568 285.354 554.1 287.247C554.1 287.247 552.533 283.447 552.533 279.385C552.533 275.323 550.966 274.656 550.966 272.828C550.966 270.999 551.122 269.615 552.22 269.145C553.317 268.687 556.778 269.732 557.875 269.275C558.62 268.962 557.627 267.878 556.922 266.558C550.482 267.59 544.082 267.525 537.499 267.525H537.513Z" fill="#16394F"/>
<path d="M569.473 277.282C564.471 275.179 567.906 274.656 567.906 272.815C567.906 270.973 568.846 269.798 568.846 267.172C568.846 264.547 572.621 264.821 572.621 263.097C572.621 262.875 572.647 262.64 572.687 262.392C568.651 263.424 564.654 264.9 560.84 265.788C559.534 266.101 558.241 266.336 556.935 266.545C557.653 267.865 558.633 268.949 557.888 269.262C556.791 269.719 553.33 268.674 552.233 269.131C551.135 269.589 550.979 270.973 550.979 272.815C550.979 274.656 552.546 275.296 552.546 279.372C552.546 283.447 554.113 287.234 554.113 287.234C549.581 285.341 548.797 283.042 541.261 279.894C533.751 276.746 538.126 275.296 535.632 272.815C533.124 270.32 531.256 270.059 531.256 268.348V267.891C526.868 268.348 522.531 269.092 518.143 269.393C516.745 270.947 514.668 272.736 510.554 275.296C504.298 279.241 509.3 275.949 504.298 281.331C499.269 286.712 504.141 283.891 496.448 287.104C488.781 290.317 488.938 291.31 485.79 294.719C483.125 297.605 483.622 297.096 483.831 297.997C485.058 298.833 486.26 299.577 487.253 299.969C490.596 301.301 500.418 299.969 500.418 299.969L553.891 305.285C553.891 305.285 571.668 305.141 577.95 304.488C576.592 303.639 575.025 302.137 573.888 301.014C572.033 299.185 573.888 297.997 573.888 296.678C573.888 295.359 578.577 291.166 580.458 289.207C582.339 287.234 585.173 288.684 582.966 285.393C580.772 282.114 574.515 279.358 569.487 277.269L569.473 277.282Z" fill="#102C3A"/>
<path d="M472.572 270.555C471.958 271.796 473.081 272.096 471.357 272.815C469.724 273.494 466.577 272.527 464.382 272.057C463.951 272.149 463.52 272.24 463.076 272.318C455.422 279.28 445.809 284.256 437.411 290.421C433.532 293.269 429.548 296.025 425.643 298.846C429.522 299.238 433.505 299.617 435.007 299.617C436.261 299.617 437.254 299.251 437.986 298.807C437.881 298.781 437.933 298.728 438.142 298.637C439.083 298.245 441.277 295.097 443.772 294.052C446.279 292.995 450.681 291.95 450.681 289.455C450.681 286.96 457.564 287.483 463.22 285.119C468.849 282.768 471.044 283.812 471.044 281.174C471.044 278.536 474.505 277.112 474.505 274.748C474.505 272.75 478.75 271.417 480.056 269.445C477.548 269.745 475.053 270.111 472.559 270.516L472.572 270.555Z" fill="#102C3A"/>
<defs>
<linearGradient id="paint0_linear_7_449" x1="382.214" y1="332.949" x2="400.708" y2="27.9418" gradientUnits="userSpaceOnUse">
<stop stop-color="#72B599"/>
<stop offset="1" stop-color="#16394F"/>
</linearGradient>
<linearGradient id="paint1_linear_7_449" x1="243.738" y1="314.95" x2="619.798" y2="411.996" gradientUnits="userSpaceOnUse">
<stop offset="0.06" stop-color="#72B599"/>
<stop offset="1" stop-color="#002F5F"/>
</linearGradient>
<linearGradient id="paint2_linear_7_449" x1="248.962" y1="294.718" x2="625.023" y2="391.764" gradientUnits="userSpaceOnUse">
<stop offset="0.06" stop-color="#72B599"/>
<stop offset="1" stop-color="#002F5F"/>
</linearGradient>
<linearGradient id="paint3_linear_7_449" x1="253.952" y1="275.362" x2="630.012" y2="372.407" gradientUnits="userSpaceOnUse">
<stop offset="0.06" stop-color="#72B599"/>
<stop offset="1" stop-color="#002F5F"/>
</linearGradient>
<linearGradient id="paint4_linear_7_449" x1="239.167" y1="332.688" x2="615.227" y2="429.733" gradientUnits="userSpaceOnUse">
<stop offset="0.06" stop-color="#72B599"/>
<stop offset="1" stop-color="#002F5F"/>
</linearGradient>
<linearGradient id="paint5_linear_7_449" x1="231.473" y1="362.507" x2="607.521" y2="459.552" gradientUnits="userSpaceOnUse">
<stop offset="0.06" stop-color="#72B599"/>
<stop offset="1" stop-color="#002F5F"/>
</linearGradient>
<linearGradient id="paint6_linear_7_449" x1="237.625" y1="338.67" x2="613.685" y2="435.715" gradientUnits="userSpaceOnUse">
<stop offset="0.06" stop-color="#72B599"/>
<stop offset="1" stop-color="#002F5F"/>
</linearGradient>
<linearGradient id="paint7_linear_7_449" x1="233.942" y1="352.907" x2="610.002" y2="449.952" gradientUnits="userSpaceOnUse">
<stop offset="0.06" stop-color="#72B599"/>
<stop offset="1" stop-color="#002F5F"/>
</linearGradient>
<linearGradient id="paint8_linear_7_449" x1="234.686" y1="350.02" x2="610.747" y2="447.066" gradientUnits="userSpaceOnUse">
<stop offset="0.06" stop-color="#72B599"/>
<stop offset="1" stop-color="#002F5F"/>
</linearGradient>
<linearGradient id="paint9_linear_7_449" x1="234.569" y1="350.503" x2="610.629" y2="447.548" gradientUnits="userSpaceOnUse">
<stop offset="0.06" stop-color="#72B599"/>
<stop offset="1" stop-color="#002F5F"/>
</linearGradient>
<linearGradient id="paint10_linear_7_449" x1="241.622" y1="323.153" x2="617.683" y2="420.198" gradientUnits="userSpaceOnUse">
<stop offset="0.06" stop-color="#72B599"/>
<stop offset="1" stop-color="#002F5F"/>
</linearGradient>
<linearGradient id="paint11_linear_7_449" x1="251.915" y1="283.29" x2="627.975" y2="380.336" gradientUnits="userSpaceOnUse">
<stop offset="0.06" stop-color="#72B599"/>
<stop offset="1" stop-color="#002F5F"/>
</linearGradient>
<linearGradient id="paint12_linear_7_449" x1="243.62" y1="315.395" x2="619.68" y2="412.44" gradientUnits="userSpaceOnUse">
<stop offset="0.06" stop-color="#72B599"/>
<stop offset="1" stop-color="#002F5F"/>
</linearGradient>
<linearGradient id="paint13_linear_7_449" x1="245.031" y1="309.961" x2="621.091" y2="407.02" gradientUnits="userSpaceOnUse">
<stop offset="0.06" stop-color="#72B599"/>
<stop offset="1" stop-color="#002F5F"/>
</linearGradient>
<linearGradient id="paint14_linear_7_449" x1="248.113" y1="297.984" x2="624.174" y2="395.029" gradientUnits="userSpaceOnUse">
<stop offset="0.06" stop-color="#72B599"/>
<stop offset="1" stop-color="#002F5F"/>
</linearGradient>
<linearGradient id="paint15_linear_7_449" x1="249.028" y1="294.444" x2="625.088" y2="391.49" gradientUnits="userSpaceOnUse">
<stop offset="0.06" stop-color="#72B599"/>
<stop offset="1" stop-color="#002F5F"/>
</linearGradient>
<linearGradient id="paint16_linear_7_449" x1="231.356" y1="322.382" x2="629.986" y2="425.253" gradientUnits="userSpaceOnUse">
<stop offset="0.06" stop-color="#72B599"/>
<stop offset="1" stop-color="#002F5F"/>
</linearGradient>
<linearGradient id="paint17_linear_7_449" x1="244.691" y1="311.267" x2="620.752" y2="408.313" gradientUnits="userSpaceOnUse">
<stop offset="0.06" stop-color="#72B599"/>
<stop offset="1" stop-color="#002F5F"/>
</linearGradient>
<linearGradient id="paint18_linear_7_449" x1="230.429" y1="316.897" x2="641.676" y2="423.033" gradientUnits="userSpaceOnUse">
<stop offset="0.06" stop-color="#72B599"/>
<stop offset="1" stop-color="#002F5F"/>
</linearGradient>
<linearGradient id="paint19_linear_7_449" x1="235.261" y1="347.826" x2="611.308" y2="444.871" gradientUnits="userSpaceOnUse">
<stop offset="0.06" stop-color="#72B599"/>
<stop offset="1" stop-color="#002F5F"/>
</linearGradient>
<linearGradient id="paint20_linear_7_449" x1="252.646" y1="278.261" x2="537.46" y2="351.77" gradientUnits="userSpaceOnUse">
<stop offset="0.06" stop-color="#72B599"/>
<stop offset="1" stop-color="#002F5F"/>
</linearGradient>
<linearGradient id="paint21_linear_7_449" x1="348.346" y1="301.615" x2="534.077" y2="349.549" gradientUnits="userSpaceOnUse">
<stop offset="0.06" stop-color="#72B599"/>
<stop offset="1" stop-color="#002F5F"/>
</linearGradient>
</defs>
</svg>
